<?xml version="1.0" encoding="utf-8"?>
<!-- Generator: Adobe Illustrator 22.1.0, SVG Export Plug-In . SVG Version: 6.00 Build 0)  -->
<svg version="1.1" id="grid" xmlns="http://www.w3.org/2000/svg" xmlns:xlink="http://www.w3.org/1999/xlink" x="0px" y="0px"
	 viewBox="0 0 64 64" style="enable-background:new 0 0 64 64;" xml:space="preserve">
<g>
	<path d="M40.5,37.9l-4.4-10.3c-0.2-0.4-0.5-0.7-0.9-0.8c-0.4-0.1-0.9-0.1-1.2,0.2l-2.8,1.7v-11c0-1.5-1.2-2.7-2.7-2.7H25H9.2H5.7
		C4.2,15,3,16.2,3,17.7v40.6C3,59.8,4.2,61,5.7,61h22.8c1.5,0,2.7-1.2,2.7-2.7v-9.6l0.2-0.1c0.4-0.2,0.7-0.5,0.9-0.9
		c0.2-0.4,0.2-0.8,0-1.2l-1.1-2.7l0,0l-0.4-1l-0.2-0.6l9.1-2.3l0,0c0.4-0.1,0.8-0.4,0.9-0.8C40.6,38.8,40.6,38.3,40.5,37.9z
		 M22.7,17c-0.3,0.5-0.8,0.8-1.4,0.8h-8.3c-0.6,0-1.1-0.3-1.4-0.8H22.7z M29.2,58.3c0,0.4-0.3,0.7-0.7,0.7H5.7C5.3,59,5,58.7,5,58.3
		V17.7C5,17.3,5.3,17,5.7,17h3.6c0.4,1.6,1.9,2.8,3.6,2.8h8.3c1.7,0,3.2-1.2,3.6-2.8h3.6c0.4,0,0.7,0.3,0.7,0.7v12.2l-5.7,3.5
		l-2.4,1c-1.3,0.5-2.3,1.6-2.8,2.8c-0.2,0.4-0.3,0.9-0.3,1.4l-1,0.4c-0.5,0.2-0.9,0.6-1.1,1.1s-0.2,1.1,0,1.6l0.3,0.8
		c0.2,0.5,0.6,0.9,1.1,1.1c0.3,0.1,0.5,0.2,0.8,0.2c0.3,0,0.5-0.1,0.8-0.2l1-0.4c0.9,0.7,2,1.1,3.2,1.1c0.6,0,1.3-0.1,1.9-0.4l2,4.7
		c0.1,0.1,0.1,0.3,0.2,0.4c0,0,0,0.1,0.1,0.1c0.2,0.2,0.4,0.4,0.7,0.4c0,0,0.1,0,0.1,0c0.3,0.1,0.7,0.1,1-0.1l0.1-0.1V58.3z
		 M24.9,39.4l0.9,2.1l-1.6,0.7c-1.2,0.5-2.6,0.2-3.5-0.7l0,0c-0.2-0.2-0.4-0.4-0.5-0.7c0-0.1-0.1-0.2-0.1-0.3
		c-0.1-0.4-0.2-0.7-0.2-1.1c0,0,0,0,0,0l0,0c0-0.4,0.1-0.9,0.2-1.3c0.3-0.8,0.9-1.4,1.7-1.7l1.6-0.7L24.9,39.4z M18.5,41.7L18,41.9
		L17.7,41l0.4-0.2c0.1,0.2,0.1,0.3,0.2,0.5C18.3,41.4,18.4,41.6,18.5,41.7z M28.6,47.7l-1.8-4.3l0.7-0.3l0.1,0l1-0.2l0.8,1.9l0,0
		l1,2.3L28.6,47.7z M29.9,40.3L29.9,40.3l-0.3,0.1l0,0l-0.8,0.2l-1,0.3l-1-2.4l-1.6-3.7l6-3.7v0l3.3-2.1l3.9,9.2L29.9,40.3z"/>
	<path d="M39.4,33.3c0.1,0,0.3,0,0.4-0.1l3.4-1.4c0.5-0.2,0.7-0.8,0.5-1.3c-0.2-0.5-0.8-0.7-1.3-0.5L39,31.4
		c-0.5,0.2-0.7,0.8-0.5,1.3C38.6,33.1,39,33.3,39.4,33.3z"/>
	<path d="M41,24.4c-0.4-0.3-1.1-0.3-1.4,0.2l-2.6,3.2c-0.3,0.4-0.3,1.1,0.2,1.4c0.2,0.1,0.4,0.2,0.6,0.2c0.3,0,0.6-0.1,0.8-0.4
		l2.6-3.2C41.5,25.4,41.4,24.8,41,24.4z"/>
	<path d="M40,36.1c0,0.6,0.4,1,0.9,1.1l4.1,0.4c0,0,0.1,0,0.1,0c0.5,0,0.9-0.4,1-0.9c0-0.6-0.4-1-0.9-1.1l-4.1-0.4
		C40.5,35.1,40.1,35.5,40,36.1z"/>
	<path d="M34.2,17h7.3c1.9,0,3.4-1.5,3.4-3.4V6.4c0-1.9-1.5-3.4-3.4-3.4h-7.3c-1.9,0-3.4,1.5-3.4,3.4v7.3C30.8,15.5,32.3,17,34.2,17
		z M32.8,6.4c0-0.8,0.6-1.4,1.4-1.4h7.3c0.8,0,1.4,0.6,1.4,1.4v7.3c0,0.8-0.6,1.4-1.4,1.4h-7.3c-0.8,0-1.4-0.6-1.4-1.4V6.4z"/>
	<path d="M57.6,27.3h-7.3c-1.9,0-3.4,1.5-3.4,3.4V38c0,1.9,1.5,3.4,3.4,3.4h7.3c1.9,0,3.4-1.5,3.4-3.4v-7.3
		C61,28.9,59.5,27.3,57.6,27.3z M59,38c0,0.8-0.6,1.4-1.4,1.4h-7.3c-0.8,0-1.4-0.6-1.4-1.4v-7.3c0-0.8,0.6-1.4,1.4-1.4h7.3
		c0.8,0,1.4,0.6,1.4,1.4V38z"/>
	<path d="M50.7,43h-7.3c-1.9,0-3.4,1.5-3.4,3.4v7.3c0,1.9,1.5,3.4,3.4,3.4h7.3c1.9,0,3.4-1.5,3.4-3.4v-7.3
		C54.1,44.5,52.6,43,50.7,43z M52.1,53.7c0,0.8-0.6,1.4-1.4,1.4h-7.3c-0.8,0-1.4-0.6-1.4-1.4v-7.3c0-0.8,0.6-1.4,1.4-1.4h7.3
		c0.8,0,1.4,0.6,1.4,1.4V53.7z"/>
	<path d="M37.8,12.7c1.5,0,2.7-1.2,2.7-2.7s-1.2-2.7-2.7-2.7s-2.7,1.2-2.7,2.7S36.4,12.7,37.8,12.7z M37.8,9.3
		c0.4,0,0.7,0.3,0.7,0.7s-0.3,0.7-0.7,0.7c-0.4,0-0.7-0.3-0.7-0.7S37.5,9.3,37.8,9.3z"/>
	<circle cx="40.9" cy="6.8" r="1.3"/>
	<circle cx="50.3" cy="16" r="1.3"/>
	<path d="M47,24.6C47,24.6,47,24.6,47,24.6c0.6,0.6,1.5,1.1,2.4,1.1h7.3c0.6,0,1.2-0.2,1.7-0.5c0,0,0,0,0,0c1-0.6,1.6-1.6,1.6-2.9
		V15c0-1.9-1.5-3.4-3.4-3.4h-7.3c-1.9,0-3.4,1.5-3.4,3.4v7.3C46.1,23.2,46.4,24,47,24.6C47,24.6,47,24.6,47,24.6z M49.4,23.7
		c-0.1,0-0.1,0-0.2,0l2.8-3l3.7,3H49.4z M58.1,22.3c0,0.2-0.1,0.4-0.1,0.6l-2.5-2l1.2-1.3l1.4,1.2V22.3z M48.1,15
		c0-0.8,0.6-1.4,1.4-1.4h7.3c0.8,0,1.4,0.6,1.4,1.4v3.1l-0.6-0.5c-0.6-0.5-1.4-0.4-2,0.1l-1.7,1.8l-1.1-0.9
		c-0.6-0.5-1.4-0.4-1.9,0.1L48.1,22V15z"/>
	<path d="M56.4,33.1l-3.4-2c-0.4-0.3-1-0.3-1.4,0c-0.4,0.3-0.7,0.7-0.7,1.3v3.9c0,0.5,0.3,1,0.7,1.3c0.2,0.1,0.5,0.2,0.7,0.2
		c0.3,0,0.5-0.1,0.7-0.2l3.4-2c0.4-0.3,0.7-0.7,0.7-1.3S56.9,33.4,56.4,33.1z M52.9,35.3v-2l1.7,1L52.9,35.3z"/>
	<path d="M48.8,45.8h-3.2c-0.7,0-1.3,0.6-1.3,1.3V53c0,0.6,0.4,1,1,1s1-0.4,1-1v-2.1H48c0.6,0,1-0.4,1-1s-0.4-1-1-1h-1.7v-1.1h2.5
		c0.6,0,1-0.4,1-1S49.4,45.8,48.8,45.8z"/>
	<path d="M20.7,55h-7.2c-0.6,0-1,0.4-1,1s0.4,1,1,1h7.2c0.6,0,1-0.4,1-1S21.2,55,20.7,55z"/>
</g>
</svg>
