<?xml version="1.0" encoding="UTF-8"?>
<svg xmlns="http://www.w3.org/2000/svg" xmlns:xlink="http://www.w3.org/1999/xlink" viewBox="0 0 1000 1000">
  <defs>
    <style>
      .cls-1 {
        clip-path: url(#clippath-16);
      }

      .cls-2, .cls-3, .cls-4, .cls-5, .cls-6 {
        fill: #e8e8e8;
      }

      .cls-3 {
        clip-path: url(#clippath-2);
      }

      .cls-3, .cls-4, .cls-7, .cls-6, .cls-8, .cls-9, .cls-10 {
        stroke-width: 0px;
      }

      .cls-11 {
        clip-path: url(#clippath-13);
      }

      .cls-12 {
        isolation: isolate;
      }

      .cls-13 {
        clip-path: url(#clippath-7);
      }

      .cls-14 {
        mix-blend-mode: hard-light;
      }

      .cls-7 {
        fill: #686868;
      }

      .cls-5 {
        font-family: MartianMono-ExtraLight, 'Martian Mono';
        font-size: 36.31px;
        font-variation-settings: 'wght' 200, 'wdth' 100;
        font-weight: 200;
      }

      .cls-15 {
        clip-path: url(#clippath-3);
      }

      .cls-6 {
        opacity: 0;
      }

      .cls-8 {
        fill: #606060;
      }

      .cls-16 {
        clip-path: url(#clippath-10);
      }

      .cls-9 {
        fill: #f0f0f0;
      }

      .cls-10 {
        fill: #797979;
      }
    </style>
    <clipPath id="clippath-2">
      <polygon class="cls-4" points="2.99 2.99 3.99 2.99 2.99 3.99 2.99 2.99"/>
    </clipPath>
    <clipPath id="clippath-3">
      <polygon class="cls-3" points="1 1 0 1 1 0 1 1"/>
    </clipPath>
    <clipPath id="clippath-7">
      <path class="cls-4" d="M810.38,11.98v59.88h19.96V11.98h-19.96ZM750.5,11.98v19.96h19.96V11.98h-19.96ZM730.54,11.98v19.96h19.96V11.98h-19.96ZM710.58,11.98v39.92h19.96V11.98h-19.96ZM690.62,11.98v19.96h19.96V11.98h-19.96ZM630.74,11.98v19.96h19.96V11.98h-19.96ZM590.82,11.98v19.96h19.96V11.98h-19.96ZM550.9,11.98v19.96h19.96V11.98h-19.96ZM530.94,11.98v179.64h19.96V11.98h-19.96ZM471.06,11.98v39.92h19.96V11.98h-19.96ZM411.18,11.98v39.92h19.96V11.98h-19.96ZM391.22,11.98v59.88h19.96V11.98h-19.96ZM351.3,11.98v39.92h19.96V11.98h-19.96ZM331.34,11.98v159.68h19.96V11.98h-19.96ZM311.38,11.98v19.96h19.96V11.98h-19.96ZM291.42,11.98v59.88h19.96V11.98h-19.96ZM271.46,11.98v79.84h19.96V11.98h-19.96ZM231.54,11.98v39.92h19.96V11.98h-19.96ZM191.62,11.98v39.92h19.96V11.98h-19.96ZM790.42,31.94v59.88h19.96V31.94h-19.96ZM770.46,31.94v19.96h19.96v-19.96h-19.96ZM670.66,31.94v99.8h19.96V31.94h-19.96ZM650.7,31.94v19.96h19.96v-19.96h-19.96ZM610.78,31.94v59.88h19.96V31.94h-19.96ZM451.1,31.94v179.64h19.96V31.94h-19.96ZM750.5,51.9v59.88h19.96v-59.88h-19.96ZM730.54,51.9v19.96h19.96v-19.96h-19.96ZM690.62,51.9v59.88h19.96v-59.88h-19.96ZM570.86,51.9v39.92h19.96v-39.92h-19.96ZM510.98,51.9v19.96h19.96v-19.96h-19.96ZM491.02,51.9v59.88h19.96v-59.88h-19.96ZM311.38,51.9v19.96h19.96v-19.96h-19.96ZM251.5,51.9v39.92h19.96v-39.92h-19.96ZM710.58,71.86v59.88h19.96v-59.88h-19.96ZM650.7,71.86v99.8h19.96v-99.8h-19.96ZM630.74,71.86v19.96h19.96v-19.96h-19.96ZM590.82,71.86v19.96h19.96v-19.96h-19.96ZM550.9,71.86v19.96h19.96v-19.96h-19.96ZM431.14,71.86v19.96h19.96v-19.96h-19.96ZM371.26,71.86v39.92h19.96v-39.92h-19.96ZM231.54,71.86v39.92h19.96v-39.92h-19.96ZM211.58,71.86v39.92h19.96v-39.92h-19.96ZM191.62,71.86v19.96h19.96v-19.96h-19.96ZM171.66,71.86v19.96h19.96v-19.96h-19.96ZM510.98,91.82v19.96h19.96v-19.96h-19.96ZM471.06,91.82v19.96h19.96v-19.96h-19.96ZM391.22,91.82v39.92h19.96v-39.92h-19.96ZM351.3,91.82v19.96h19.96v-19.96h-19.96ZM291.42,91.82v19.96h19.96v-19.96h-19.96ZM770.46,111.78v59.88h19.96v-59.88h-19.96ZM630.74,111.78v19.96h19.96v-19.96h-19.96ZM610.78,111.78v39.92h19.96v-39.92h-19.96ZM590.82,111.78v19.96h19.96v-19.96h-19.96ZM550.9,111.78v19.96h19.96v-19.96h-19.96ZM431.14,111.78v19.96h19.96v-19.96h-19.96ZM411.18,111.78v59.88h19.96v-59.88h-19.96ZM271.46,111.78v19.96h19.96v-19.96h-19.96ZM810.38,131.74v59.88h19.96v-59.88h-19.96ZM730.54,131.74v19.96h19.96v-19.96h-19.96ZM690.62,131.74v19.96h19.96v-19.96h-19.96ZM570.86,131.74v19.96h19.96v-19.96h-19.96ZM491.02,131.74v19.96h19.96v-19.96h-19.96ZM371.26,131.74v39.92h19.96v-39.92h-19.96ZM291.42,131.74v19.96h19.96v-19.96h-19.96ZM251.5,131.74v59.88h19.96v-59.88h-19.96ZM211.58,131.74v19.96h19.96v-19.96h-19.96ZM171.66,131.74v19.96h19.96v-19.96h-19.96ZM670.66,151.7v39.92h19.96v-39.92h-19.96ZM630.74,151.7v19.96h19.96v-19.96h-19.96ZM550.9,151.7v19.96h19.96v-19.96h-19.96ZM431.14,151.7v19.96h19.96v-19.96h-19.96ZM391.22,151.7v19.96h19.96v-19.96h-19.96ZM351.3,151.7v39.92h19.96v-39.92h-19.96ZM271.46,151.7v19.96h19.96v-19.96h-19.96ZM910.18,171.66v59.88h19.96v-59.88h-19.96ZM830.34,171.66v59.88h19.96v-59.88h-19.96ZM790.42,171.66v19.96h19.96v-19.96h-19.96ZM730.54,171.66v19.96h19.96v-19.96h-19.96ZM690.62,171.66v19.96h19.96v-19.96h-19.96ZM610.78,171.66v39.92h19.96v-39.92h-19.96ZM570.86,171.66v19.96h19.96v-19.96h-19.96ZM510.98,171.66v19.96h19.96v-19.96h-19.96ZM491.02,171.66v19.96h19.96v-19.96h-19.96ZM471.06,171.66v79.84h19.96v-79.84h-19.96ZM231.54,171.66v19.96h19.96v-19.96h-19.96ZM131.74,171.66v19.96h19.96v-19.96h-19.96ZM111.78,171.66v19.96h19.96v-19.96h-19.96ZM91.82,171.66v79.84h19.96v-79.84h-19.96ZM71.86,171.66v59.88h19.96v-59.88h-19.96ZM31.94,171.66v19.96h19.96v-19.96h-19.96ZM11.98,171.66v39.92h19.96v-39.92H11.98ZM970.06,191.62v19.96h19.96v-19.96h-19.96ZM950.1,191.62v19.96h19.96v-19.96h-19.96ZM930.14,191.62v19.96h19.96v-19.96h-19.96ZM870.26,191.62v39.92h19.96v-39.92h-19.96ZM710.58,191.62v39.92h19.96v-39.92h-19.96ZM331.34,191.62v19.96h19.96v-19.96h-19.96ZM291.42,191.62v59.88h19.96v-59.88h-19.96ZM271.46,191.62v99.8h19.96v-99.8h-19.96ZM211.58,191.62v19.96h19.96v-19.96h-19.96ZM191.62,191.62v19.96h19.96v-19.96h-19.96ZM171.66,191.62v39.92h19.96v-39.92h-19.96ZM151.7,191.62v39.92h19.96v-39.92h-19.96ZM51.9,191.62v19.96h19.96v-19.96h-19.96ZM850.3,211.58v19.96h19.96v-19.96h-19.96ZM810.38,211.58v39.92h19.96v-39.92h-19.96ZM750.5,211.58v19.96h19.96v-19.96h-19.96ZM650.7,211.58v39.92h19.96v-39.92h-19.96ZM570.86,211.58v19.96h19.96v-19.96h-19.96ZM550.9,211.58v19.96h19.96v-19.96h-19.96ZM491.02,211.58v79.84h19.96v-79.84h-19.96ZM391.22,211.58v59.88h19.96v-59.88h-19.96ZM371.26,211.58v19.96h19.96v-19.96h-19.96ZM351.3,211.58v79.84h19.96v-79.84h-19.96ZM131.74,211.58v19.96h19.96v-19.96h-19.96ZM31.94,211.58v39.92h19.96v-39.92h-19.96ZM930.14,231.54v39.92h19.96v-39.92h-19.96ZM890.22,231.54v59.88h19.96v-59.88h-19.96ZM730.54,231.54v59.88h19.96v-59.88h-19.96ZM690.62,231.54v19.96h19.96v-19.96h-19.96ZM510.98,231.54v19.96h19.96v-19.96h-19.96ZM431.14,231.54v19.96h19.96v-19.96h-19.96ZM411.18,231.54v19.96h19.96v-19.96h-19.96ZM251.5,231.54v39.92h19.96v-39.92h-19.96ZM51.9,231.54v19.96h19.96v-19.96h-19.96ZM950.1,251.5v19.96h19.96v-19.96h-19.96ZM850.3,251.5v39.92h19.96v-39.92h-19.96ZM790.42,251.5v19.96h19.96v-19.96h-19.96ZM750.5,251.5v139.72h19.96v-139.72h-19.96ZM710.58,251.5v19.96h19.96v-19.96h-19.96ZM630.74,251.5v79.84h19.96v-79.84h-19.96ZM610.78,251.5v19.96h19.96v-19.96h-19.96ZM530.94,251.5v99.8h19.96v-99.8h-19.96ZM331.34,251.5v19.96h19.96v-19.96h-19.96ZM311.38,251.5v19.96h19.96v-19.96h-19.96ZM231.54,251.5v39.92h19.96v-39.92h-19.96ZM211.58,251.5v19.96h19.96v-19.96h-19.96ZM191.62,251.5v19.96h19.96v-19.96h-19.96ZM171.66,251.5v119.76h19.96v-119.76h-19.96ZM151.7,251.5v219.56h19.96v-219.56h-19.96ZM131.74,251.5v19.96h19.96v-19.96h-19.96ZM111.78,251.5v19.96h19.96v-19.96h-19.96ZM11.98,251.5v39.92h19.96v-39.92H11.98ZM910.18,271.46v19.96h19.96v-19.96h-19.96ZM870.26,271.46v19.96h19.96v-19.96h-19.96ZM830.34,271.46v19.96h19.96v-19.96h-19.96ZM670.66,271.46v19.96h19.96v-19.96h-19.96ZM650.7,271.46v19.96h19.96v-19.96h-19.96ZM570.86,271.46v39.92h19.96v-39.92h-19.96ZM550.9,271.46v39.92h19.96v-39.92h-19.96ZM510.98,271.46v39.92h19.96v-39.92h-19.96ZM451.1,271.46v19.96h19.96v-19.96h-19.96ZM411.18,271.46v39.92h19.96v-39.92h-19.96ZM371.26,271.46v39.92h19.96v-39.92h-19.96ZM291.42,271.46v19.96h19.96v-19.96h-19.96ZM91.82,271.46v19.96h19.96v-19.96h-19.96ZM51.9,271.46v19.96h19.96v-19.96h-19.96ZM31.94,271.46v19.96h19.96v-19.96h-19.96ZM970.06,291.42v19.96h19.96v-19.96h-19.96ZM770.46,291.42v39.92h19.96v-39.92h-19.96ZM690.62,291.42v19.96h19.96v-19.96h-19.96ZM590.82,291.42v39.92h19.96v-39.92h-19.96ZM431.14,291.42v39.92h19.96v-39.92h-19.96ZM391.22,291.42v19.96h19.96v-19.96h-19.96ZM311.38,291.42v19.96h19.96v-19.96h-19.96ZM251.5,291.42v19.96h19.96v-19.96h-19.96ZM191.62,291.42v19.96h19.96v-19.96h-19.96ZM131.74,291.42v19.96h19.96v-19.96h-19.96ZM930.14,311.38v19.96h19.96v-19.96h-19.96ZM910.18,311.38v99.8h19.96v-99.8h-19.96ZM890.22,311.38v19.96h19.96v-19.96h-19.96ZM810.38,311.38v39.92h19.96v-39.92h-19.96ZM710.58,311.38v19.96h19.96v-19.96h-19.96ZM670.66,311.38v39.92h19.96v-39.92h-19.96ZM650.7,311.38v59.88h19.96v-59.88h-19.96ZM610.78,311.38v19.96h19.96v-19.96h-19.96ZM491.02,311.38v39.92h19.96v-39.92h-19.96ZM471.06,311.38v39.92h19.96v-39.92h-19.96ZM331.34,311.38v59.88h19.96v-59.88h-19.96ZM271.46,311.38v19.96h19.96v-19.96h-19.96ZM91.82,311.38v19.96h19.96v-19.96h-19.96ZM51.9,311.38v19.96h19.96v-19.96h-19.96ZM970.06,331.34v19.96h19.96v-19.96h-19.96ZM950.1,331.34v19.96h19.96v-19.96h-19.96ZM870.26,331.34v19.96h19.96v-19.96h-19.96ZM790.42,331.34v19.96h19.96v-19.96h-19.96ZM730.54,331.34v39.92h19.96v-39.92h-19.96ZM690.62,331.34v19.96h19.96v-19.96h-19.96ZM570.86,331.34v19.96h19.96v-19.96h-19.96ZM550.9,331.34v19.96h19.96v-19.96h-19.96ZM371.26,331.34v19.96h19.96v-19.96h-19.96ZM351.3,331.34v19.96h19.96v-19.96h-19.96ZM311.38,331.34v59.88h19.96v-59.88h-19.96ZM231.54,331.34v19.96h19.96v-19.96h-19.96ZM211.58,331.34v19.96h19.96v-19.96h-19.96ZM191.62,331.34v19.96h19.96v-19.96h-19.96ZM131.74,331.34v19.96h19.96v-19.96h-19.96ZM111.78,331.34v19.96h19.96v-19.96h-19.96ZM71.86,331.34v19.96h19.96v-19.96h-19.96ZM31.94,331.34v99.8h19.96v-99.8h-19.96ZM930.14,351.3v19.96h19.96v-19.96h-19.96ZM850.3,351.3v19.96h19.96v-19.96h-19.96ZM271.46,351.3v19.96h19.96v-19.96h-19.96ZM251.5,351.3v19.96h19.96v-19.96h-19.96ZM91.82,351.3v19.96h19.96v-19.96h-19.96ZM11.98,351.3v39.92h19.96v-39.92H11.98ZM970.06,371.26v19.96h19.96v-19.96h-19.96ZM870.26,371.26v19.96h19.96v-19.96h-19.96ZM710.58,371.26v19.96h19.96v-19.96h-19.96ZM690.62,371.26v19.96h19.96v-19.96h-19.96ZM231.54,371.26v19.96h19.96v-19.96h-19.96ZM131.74,371.26v19.96h19.96v-19.96h-19.96ZM111.78,371.26v59.88h19.96v-59.88h-19.96ZM71.86,371.26v39.92h19.96v-39.92h-19.96ZM890.22,391.22v159.68h19.96v-159.68h-19.96ZM830.34,391.22v19.96h19.96v-19.96h-19.96ZM730.54,391.22v19.96h19.96v-19.96h-19.96ZM650.7,391.22v19.96h19.96v-19.96h-19.96ZM271.46,391.22v19.96h19.96v-19.96h-19.96ZM251.5,391.22v19.96h19.96v-19.96h-19.96ZM211.58,391.22v19.96h19.96v-19.96h-19.96ZM191.62,391.22v19.96h19.96v-19.96h-19.96ZM171.66,391.22v39.92h19.96v-39.92h-19.96ZM91.82,391.22v19.96h19.96v-19.96h-19.96ZM930.14,411.18v19.96h19.96v-19.96h-19.96ZM870.26,411.18v59.88h19.96v-59.88h-19.96ZM810.38,411.18v19.96h19.96v-19.96h-19.96ZM790.42,411.18v19.96h19.96v-19.96h-19.96ZM770.46,411.18v39.92h19.96v-39.92h-19.96ZM750.5,411.18v19.96h19.96v-19.96h-19.96ZM710.58,411.18v19.96h19.96v-19.96h-19.96ZM690.62,411.18v19.96h19.96v-19.96h-19.96ZM311.38,411.18v39.92h19.96v-39.92h-19.96ZM231.54,411.18v59.88h19.96v-59.88h-19.96ZM131.74,411.18v19.96h19.96v-19.96h-19.96ZM11.98,411.18v39.92h19.96v-39.92H11.98ZM910.18,431.14v19.96h19.96v-19.96h-19.96ZM850.3,431.14v39.92h19.96v-39.92h-19.96ZM670.66,431.14v19.96h19.96v-19.96h-19.96ZM291.42,431.14v19.96h19.96v-19.96h-19.96ZM71.86,431.14v19.96h19.96v-19.96h-19.96ZM950.1,451.1v19.96h19.96v-19.96h-19.96ZM830.34,451.1v19.96h19.96v-19.96h-19.96ZM810.38,451.1v159.68h19.96v-159.68h-19.96ZM790.42,451.1v19.96h19.96v-19.96h-19.96ZM750.5,451.1v19.96h19.96v-19.96h-19.96ZM650.7,451.1v39.92h19.96v-39.92h-19.96ZM271.46,451.1v39.92h19.96v-39.92h-19.96ZM171.66,451.1v99.8h19.96v-99.8h-19.96ZM131.74,451.1v19.96h19.96v-19.96h-19.96ZM111.78,451.1v19.96h19.96v-19.96h-19.96ZM91.82,451.1v99.8h19.96v-99.8h-19.96ZM730.54,471.06v39.92h19.96v-39.92h-19.96ZM690.62,471.06v19.96h19.96v-19.96h-19.96ZM311.38,471.06v79.84h19.96v-79.84h-19.96ZM291.42,471.06v119.76h19.96v-119.76h-19.96ZM251.5,471.06v19.96h19.96v-19.96h-19.96ZM191.62,471.06v39.92h19.96v-39.92h-19.96ZM71.86,471.06v19.96h19.96v-19.96h-19.96ZM51.9,471.06v39.92h19.96v-39.92h-19.96ZM31.94,471.06v79.84h19.96v-79.84h-19.96ZM11.98,471.06v19.96h19.96v-19.96H11.98ZM950.1,491.02v19.96h19.96v-19.96h-19.96ZM910.18,491.02v19.96h19.96v-19.96h-19.96ZM850.3,491.02v19.96h19.96v-19.96h-19.96ZM770.46,491.02v159.68h19.96v-159.68h-19.96ZM750.5,491.02v19.96h19.96v-19.96h-19.96ZM710.58,491.02v19.96h19.96v-19.96h-19.96ZM331.34,491.02v19.96h19.96v-19.96h-19.96ZM131.74,491.02v19.96h19.96v-19.96h-19.96ZM790.42,510.98v19.96h19.96v-19.96h-19.96ZM690.62,510.98v39.92h19.96v-39.92h-19.96ZM670.66,510.98v19.96h19.96v-19.96h-19.96ZM650.7,510.98v39.92h19.96v-39.92h-19.96ZM271.46,510.98v79.84h19.96v-79.84h-19.96ZM71.86,510.98v59.88h19.96v-59.88h-19.96ZM11.98,510.98v19.96h19.96v-19.96H11.98ZM950.1,530.94v19.96h19.96v-19.96h-19.96ZM910.18,530.94v59.88h19.96v-59.88h-19.96ZM870.26,530.94v39.92h19.96v-39.92h-19.96ZM850.3,530.94v19.96h19.96v-19.96h-19.96ZM830.34,530.94v39.92h19.96v-39.92h-19.96ZM750.5,530.94v39.92h19.96v-39.92h-19.96ZM710.58,530.94v59.88h19.96v-59.88h-19.96ZM331.34,530.94v19.96h19.96v-19.96h-19.96ZM251.5,530.94v59.88h19.96v-59.88h-19.96ZM211.58,530.94v19.96h19.96v-19.96h-19.96ZM191.62,530.94v19.96h19.96v-19.96h-19.96ZM151.7,530.94v19.96h19.96v-19.96h-19.96ZM131.74,530.94v19.96h19.96v-19.96h-19.96ZM111.78,530.94v19.96h19.96v-19.96h-19.96ZM970.06,550.9v19.96h19.96v-19.96h-19.96ZM790.42,550.9v19.96h19.96v-19.96h-19.96ZM670.66,550.9v139.72h19.96v-139.72h-19.96ZM51.9,550.9v19.96h19.96v-19.96h-19.96ZM890.22,570.86v39.92h19.96v-39.92h-19.96ZM730.54,570.86v59.88h19.96v-59.88h-19.96ZM331.34,570.86v39.92h19.96v-39.92h-19.96ZM231.54,570.86v79.84h19.96v-79.84h-19.96ZM191.62,570.86v39.92h19.96v-39.92h-19.96ZM171.66,570.86v19.96h19.96v-19.96h-19.96ZM131.74,570.86v19.96h19.96v-19.96h-19.96ZM31.94,570.86v19.96h19.96v-19.96h-19.96ZM11.98,570.86v39.92h19.96v-39.92H11.98ZM790.42,590.82v39.92h19.96v-39.92h-19.96ZM750.5,590.82v59.88h19.96v-59.88h-19.96ZM211.58,590.82v59.88h19.96v-59.88h-19.96ZM91.82,590.82v39.92h19.96v-39.92h-19.96ZM71.86,590.82v19.96h19.96v-19.96h-19.96ZM51.9,590.82v39.92h19.96v-39.92h-19.96ZM950.1,610.78v39.92h19.96v-39.92h-19.96ZM930.14,610.78v19.96h19.96v-19.96h-19.96ZM910.18,610.78v19.96h19.96v-19.96h-19.96ZM850.3,610.78v19.96h19.96v-19.96h-19.96ZM710.58,610.78v19.96h19.96v-19.96h-19.96ZM311.38,610.78v19.96h19.96v-19.96h-19.96ZM251.5,610.78v19.96h19.96v-19.96h-19.96ZM171.66,610.78v39.92h19.96v-39.92h-19.96ZM131.74,610.78v19.96h19.96v-19.96h-19.96ZM111.78,610.78v39.92h19.96v-39.92h-19.96ZM31.94,610.78v19.96h19.96v-19.96h-19.96ZM970.06,630.74v39.92h19.96v-39.92h-19.96ZM870.26,630.74v59.88h19.96v-59.88h-19.96ZM810.38,630.74v59.88h19.96v-59.88h-19.96ZM650.7,630.74v39.92h19.96v-39.92h-19.96ZM291.42,630.74v39.92h19.96v-39.92h-19.96ZM271.46,630.74v39.92h19.96v-39.92h-19.96ZM71.86,630.74v59.88h19.96v-59.88h-19.96ZM11.98,630.74v39.92h19.96v-39.92H11.98ZM850.3,650.7v179.64h19.96v-179.64h-19.96ZM830.34,650.7v39.92h19.96v-39.92h-19.96ZM790.42,650.7v39.92h19.96v-39.92h-19.96ZM730.54,650.7v39.92h19.96v-39.92h-19.96ZM590.82,650.7v39.92h19.96v-39.92h-19.96ZM570.86,650.7v99.8h19.96v-99.8h-19.96ZM550.9,650.7v39.92h19.96v-39.92h-19.96ZM491.02,650.7v19.96h19.96v-19.96h-19.96ZM471.06,650.7v39.92h19.96v-39.92h-19.96ZM431.14,650.7v19.96h19.96v-19.96h-19.96ZM411.18,650.7v19.96h19.96v-19.96h-19.96ZM391.22,650.7v19.96h19.96v-19.96h-19.96ZM331.34,650.7v19.96h19.96v-19.96h-19.96ZM311.38,650.7v19.96h19.96v-19.96h-19.96ZM251.5,650.7v19.96h19.96v-19.96h-19.96ZM191.62,650.7v39.92h19.96v-39.92h-19.96ZM131.74,650.7v19.96h19.96v-19.96h-19.96ZM930.14,670.66v99.8h19.96v-99.8h-19.96ZM890.22,670.66v19.96h19.96v-19.96h-19.96ZM710.58,670.66v19.96h19.96v-19.96h-19.96ZM690.62,670.66v59.88h19.96v-59.88h-19.96ZM530.94,670.66v19.96h19.96v-19.96h-19.96ZM510.98,670.66v39.92h19.96v-39.92h-19.96ZM231.54,670.66v19.96h19.96v-19.96h-19.96ZM211.58,670.66v39.92h19.96v-39.92h-19.96ZM111.78,670.66v39.92h19.96v-39.92h-19.96ZM91.82,670.66v19.96h19.96v-19.96h-19.96ZM51.9,670.66v59.88h19.96v-59.88h-19.96ZM750.5,690.62v19.96h19.96v-19.96h-19.96ZM650.7,690.62v19.96h19.96v-19.96h-19.96ZM630.74,690.62v39.92h19.96v-39.92h-19.96ZM491.02,690.62v19.96h19.96v-19.96h-19.96ZM451.1,690.62v79.84h19.96v-79.84h-19.96ZM371.26,690.62v19.96h19.96v-19.96h-19.96ZM351.3,690.62v19.96h19.96v-19.96h-19.96ZM331.34,690.62v79.84h19.96v-79.84h-19.96ZM311.38,690.62v59.88h19.96v-59.88h-19.96ZM271.46,690.62v19.96h19.96v-19.96h-19.96ZM151.7,690.62v19.96h19.96v-19.96h-19.96ZM131.74,690.62v19.96h19.96v-19.96h-19.96ZM11.98,690.62v59.88h19.96v-59.88H11.98ZM950.1,710.58v39.92h19.96v-39.92h-19.96ZM910.18,710.58v19.96h19.96v-19.96h-19.96ZM890.22,710.58v79.84h19.96v-79.84h-19.96ZM730.54,710.58v59.88h19.96v-59.88h-19.96ZM710.58,710.58v79.84h19.96v-79.84h-19.96ZM670.66,710.58v59.88h19.96v-59.88h-19.96ZM610.78,710.58v19.96h19.96v-19.96h-19.96ZM550.9,710.58v39.92h19.96v-39.92h-19.96ZM530.94,710.58v239.52h19.96v-239.52h-19.96ZM471.06,710.58v39.92h19.96v-39.92h-19.96ZM391.22,710.58v79.84h19.96v-79.84h-19.96ZM251.5,710.58v59.88h19.96v-59.88h-19.96ZM231.54,710.58v39.92h19.96v-39.92h-19.96ZM171.66,710.58v39.92h19.96v-39.92h-19.96ZM91.82,710.58v39.92h19.96v-39.92h-19.96ZM31.94,710.58v19.96h19.96v-19.96h-19.96ZM970.06,730.54v39.92h19.96v-39.92h-19.96ZM870.26,730.54v99.8h19.96v-99.8h-19.96ZM830.34,730.54v59.88h19.96v-59.88h-19.96ZM810.38,730.54v19.96h19.96v-19.96h-19.96ZM790.42,730.54v39.92h19.96v-39.92h-19.96ZM750.5,730.54v39.92h19.96v-39.92h-19.96ZM510.98,730.54v19.96h19.96v-19.96h-19.96ZM491.02,730.54v39.92h19.96v-39.92h-19.96ZM411.18,730.54v159.68h19.96v-159.68h-19.96ZM291.42,730.54v59.88h19.96v-59.88h-19.96ZM211.58,730.54v39.92h19.96v-39.92h-19.96ZM131.74,730.54v19.96h19.96v-19.96h-19.96ZM111.78,730.54v59.88h19.96v-59.88h-19.96ZM610.78,750.5v19.96h19.96v-19.96h-19.96ZM590.82,750.5v119.76h19.96v-119.76h-19.96ZM431.14,750.5v19.96h19.96v-19.96h-19.96ZM271.46,750.5v19.96h19.96v-19.96h-19.96ZM151.7,750.5v19.96h19.96v-19.96h-19.96ZM71.86,750.5v19.96h19.96v-19.96h-19.96ZM950.1,770.46v39.92h19.96v-39.92h-19.96ZM810.38,770.46v19.96h19.96v-19.96h-19.96ZM770.46,770.46v19.96h19.96v-19.96h-19.96ZM650.7,770.46v19.96h19.96v-19.96h-19.96ZM570.86,770.46v19.96h19.96v-19.96h-19.96ZM550.9,770.46v19.96h19.96v-19.96h-19.96ZM371.26,770.46v59.88h19.96v-59.88h-19.96ZM311.38,770.46v59.88h19.96v-59.88h-19.96ZM131.74,770.46v19.96h19.96v-19.96h-19.96ZM31.94,770.46v59.88h19.96v-59.88h-19.96ZM970.06,790.42v39.92h19.96v-39.92h-19.96ZM930.14,790.42v19.96h19.96v-19.96h-19.96ZM910.18,790.42v39.92h19.96v-39.92h-19.96ZM750.5,790.42v39.92h19.96v-39.92h-19.96ZM670.66,790.42v79.84h19.96v-79.84h-19.96ZM491.02,790.42v39.92h19.96v-39.92h-19.96ZM471.06,790.42v39.92h19.96v-39.92h-19.96ZM451.1,790.42v119.76h19.96v-119.76h-19.96ZM351.3,790.42v19.96h19.96v-19.96h-19.96ZM271.46,790.42v39.92h19.96v-39.92h-19.96ZM231.54,790.42v19.96h19.96v-19.96h-19.96ZM191.62,790.42v19.96h19.96v-19.96h-19.96ZM151.7,790.42v19.96h19.96v-19.96h-19.96ZM71.86,790.42v19.96h19.96v-19.96h-19.96ZM51.9,790.42v39.92h19.96v-39.92h-19.96ZM890.22,810.38v119.76h19.96v-119.76h-19.96ZM830.34,810.38v19.96h19.96v-19.96h-19.96ZM810.38,810.38v99.8h19.96v-99.8h-19.96ZM710.58,810.38v59.88h19.96v-59.88h-19.96ZM690.62,810.38v19.96h19.96v-19.96h-19.96ZM650.7,810.38v19.96h19.96v-19.96h-19.96ZM630.74,810.38v19.96h19.96v-19.96h-19.96ZM570.86,810.38v39.92h19.96v-39.92h-19.96ZM510.98,810.38v19.96h19.96v-19.96h-19.96ZM391.22,810.38v39.92h19.96v-39.92h-19.96ZM211.58,810.38v39.92h19.96v-39.92h-19.96ZM131.74,810.38v19.96h19.96v-19.96h-19.96ZM11.98,810.38v19.96h19.96v-19.96H11.98ZM950.1,830.34v19.96h19.96v-19.96h-19.96ZM790.42,830.34v59.88h19.96v-59.88h-19.96ZM610.78,830.34v59.88h19.96v-59.88h-19.96ZM351.3,830.34v19.96h19.96v-19.96h-19.96ZM331.34,830.34v19.96h19.96v-19.96h-19.96ZM251.5,830.34v39.92h19.96v-39.92h-19.96ZM231.54,830.34v19.96h19.96v-19.96h-19.96ZM191.62,830.34v19.96h19.96v-19.96h-19.96ZM930.14,850.3v79.84h19.96v-79.84h-19.96ZM850.3,850.3v19.96h19.96v-19.96h-19.96ZM770.46,850.3v79.84h19.96v-79.84h-19.96ZM730.54,850.3v19.96h19.96v-19.96h-19.96ZM690.62,850.3v19.96h19.96v-19.96h-19.96ZM650.7,850.3v59.88h19.96v-59.88h-19.96ZM630.74,850.3v19.96h19.96v-19.96h-19.96ZM550.9,850.3v19.96h19.96v-19.96h-19.96ZM491.02,850.3v19.96h19.96v-19.96h-19.96ZM311.38,850.3v59.88h19.96v-59.88h-19.96ZM970.06,870.26v19.96h19.96v-19.96h-19.96ZM570.86,870.26v19.96h19.96v-19.96h-19.96ZM431.14,870.26v19.96h19.96v-19.96h-19.96ZM391.22,870.26v39.92h19.96v-39.92h-19.96ZM371.26,870.26v39.92h19.96v-39.92h-19.96ZM331.34,870.26v59.88h19.96v-59.88h-19.96ZM271.46,870.26v119.76h19.96v-119.76h-19.96ZM171.66,870.26v59.88h19.96v-59.88h-19.96ZM950.1,890.22v19.96h19.96v-19.96h-19.96ZM910.18,890.22v19.96h19.96v-19.96h-19.96ZM870.26,890.22v19.96h19.96v-19.96h-19.96ZM850.3,890.22v19.96h19.96v-19.96h-19.96ZM830.34,890.22v19.96h19.96v-19.96h-19.96ZM590.82,890.22v39.92h19.96v-39.92h-19.96ZM510.98,890.22v59.88h19.96v-59.88h-19.96ZM491.02,890.22v19.96h19.96v-19.96h-19.96ZM471.06,890.22v19.96h19.96v-19.96h-19.96ZM351.3,890.22v59.88h19.96v-59.88h-19.96ZM251.5,890.22v19.96h19.96v-19.96h-19.96ZM730.54,910.18v19.96h19.96v-19.96h-19.96ZM710.58,910.18v19.96h19.96v-19.96h-19.96ZM550.9,910.18v19.96h19.96v-19.96h-19.96ZM411.18,910.18v19.96h19.96v-19.96h-19.96ZM211.58,910.18v39.92h19.96v-39.92h-19.96ZM191.62,910.18v19.96h19.96v-19.96h-19.96ZM870.26,930.14v39.92h19.96v-39.92h-19.96ZM850.3,930.14v59.88h19.96v-59.88h-19.96ZM810.38,930.14v19.96h19.96v-19.96h-19.96ZM630.74,930.14v59.88h19.96v-59.88h-19.96ZM610.78,930.14v19.96h19.96v-19.96h-19.96ZM570.86,930.14v19.96h19.96v-19.96h-19.96ZM451.1,930.14v59.88h19.96v-59.88h-19.96ZM431.14,930.14v59.88h19.96v-59.88h-19.96ZM391.22,930.14v59.88h19.96v-59.88h-19.96ZM371.26,930.14v19.96h19.96v-19.96h-19.96ZM970.06,950.1v39.92h19.96v-39.92h-19.96ZM930.14,950.1v39.92h19.96v-39.92h-19.96ZM910.18,950.1v19.96h19.96v-19.96h-19.96ZM830.34,950.1v39.92h19.96v-39.92h-19.96ZM750.5,950.1v39.92h19.96v-39.92h-19.96ZM650.7,950.1v39.92h19.96v-39.92h-19.96ZM590.82,950.1v39.92h19.96v-39.92h-19.96ZM491.02,950.1v19.96h19.96v-19.96h-19.96ZM411.18,950.1v39.92h19.96v-39.92h-19.96ZM231.54,950.1v39.92h19.96v-39.92h-19.96ZM171.66,950.1v39.92h19.96v-39.92h-19.96ZM890.22,970.06v19.96h19.96v-19.96h-19.96ZM810.38,970.06v19.96h19.96v-19.96h-19.96ZM790.42,970.06v19.96h19.96v-19.96h-19.96ZM770.46,970.06v19.96h19.96v-19.96h-19.96ZM690.62,970.06v19.96h19.96v-19.96h-19.96ZM670.66,970.06v19.96h19.96v-19.96h-19.96ZM610.78,970.06v19.96h19.96v-19.96h-19.96ZM570.86,970.06v19.96h19.96v-19.96h-19.96ZM530.94,970.06v19.96h19.96v-19.96h-19.96ZM510.98,970.06v19.96h19.96v-19.96h-19.96ZM371.26,970.06v19.96h19.96v-19.96h-19.96ZM351.3,970.06v19.96h19.96v-19.96h-19.96ZM331.34,970.06v19.96h19.96v-19.96h-19.96ZM291.42,970.06v19.96h19.96v-19.96h-19.96ZM251.5,970.06v19.96h19.96v-19.96h-19.96ZM211.58,970.06v19.96h19.96v-19.96h-19.96ZM191.62,970.06v19.96h19.96v-19.96h-19.96Z"/>
    </clipPath>
    <clipPath id="clippath-10">
      <path class="cls-4" d="M11.98,11.98v139.72h139.72V11.98H11.98ZM31.94,31.94h99.8v99.8H31.94V31.94ZM91.82,51.9v59.88h19.96v-59.88h-19.96ZM71.86,51.9v59.88h19.96v-59.88h-19.96ZM51.9,51.9v59.88h19.96v-59.88h-19.96Z"/>
    </clipPath>
    <clipPath id="clippath-13">
      <path class="cls-4" d="M850.3,11.98v139.72h139.72V11.98h-139.72ZM870.26,31.94h99.8v99.8h-99.8V31.94ZM930.14,51.9v59.88h19.96v-59.88h-19.96ZM910.18,51.9v59.88h19.96v-59.88h-19.96ZM890.22,51.9v59.88h19.96v-59.88h-19.96Z"/>
    </clipPath>
    <clipPath id="clippath-16">
      <path class="cls-4" d="M11.98,850.3v139.72h139.72v-139.72H11.98ZM31.94,870.26h99.8v99.8H31.94v-99.8ZM91.82,890.22v59.88h19.96v-59.88h-19.96ZM71.86,890.22v59.88h19.96v-59.88h-19.96ZM51.9,890.22v59.88h19.96v-59.88h-19.96Z"/>
    </clipPath>
  </defs>
  <g class="cls-12">
    <g id="Camada_1" data-name="Camada 1">
      <g>
        <g>
          <g>
            <polygon class="cls-2" points="2.99 2.99 3.99 2.99 2.99 3.99 2.99 2.99"/>
            <polygon class="cls-2" points="1 1 0 1 1 0 1 1"/>
            <g class="cls-15">
              <rect class="cls-6" x="2" y="2" width="998" height="998"/>
            </g>
          </g>
          <g>
            <path class="cls-2" d="M810.38,11.98v59.88h19.96V11.98h-19.96ZM750.5,11.98v19.96h19.96V11.98h-19.96ZM730.54,11.98v19.96h19.96V11.98h-19.96ZM710.58,11.98v39.92h19.96V11.98h-19.96ZM690.62,11.98v19.96h19.96V11.98h-19.96ZM630.74,11.98v19.96h19.96V11.98h-19.96ZM590.82,11.98v19.96h19.96V11.98h-19.96ZM550.9,11.98v19.96h19.96V11.98h-19.96ZM530.94,11.98v179.64h19.96V11.98h-19.96ZM471.06,11.98v39.92h19.96V11.98h-19.96ZM411.18,11.98v39.92h19.96V11.98h-19.96ZM391.22,11.98v59.88h19.96V11.98h-19.96ZM351.3,11.98v39.92h19.96V11.98h-19.96ZM331.34,11.98v159.68h19.96V11.98h-19.96ZM311.38,11.98v19.96h19.96V11.98h-19.96ZM291.42,11.98v59.88h19.96V11.98h-19.96ZM271.46,11.98v79.84h19.96V11.98h-19.96ZM231.54,11.98v39.92h19.96V11.98h-19.96ZM191.62,11.98v39.92h19.96V11.98h-19.96ZM790.42,31.94v59.88h19.96V31.94h-19.96ZM770.46,31.94v19.96h19.96v-19.96h-19.96ZM670.66,31.94v99.8h19.96V31.94h-19.96ZM650.7,31.94v19.96h19.96v-19.96h-19.96ZM610.78,31.94v59.88h19.96V31.94h-19.96ZM451.1,31.94v179.64h19.96V31.94h-19.96ZM750.5,51.9v59.88h19.96v-59.88h-19.96ZM730.54,51.9v19.96h19.96v-19.96h-19.96ZM690.62,51.9v59.88h19.96v-59.88h-19.96ZM570.86,51.9v39.92h19.96v-39.92h-19.96ZM510.98,51.9v19.96h19.96v-19.96h-19.96ZM491.02,51.9v59.88h19.96v-59.88h-19.96ZM311.38,51.9v19.96h19.96v-19.96h-19.96ZM251.5,51.9v39.92h19.96v-39.92h-19.96ZM710.58,71.86v59.88h19.96v-59.88h-19.96ZM650.7,71.86v99.8h19.96v-99.8h-19.96ZM630.74,71.86v19.96h19.96v-19.96h-19.96ZM590.82,71.86v19.96h19.96v-19.96h-19.96ZM550.9,71.86v19.96h19.96v-19.96h-19.96ZM431.14,71.86v19.96h19.96v-19.96h-19.96ZM371.26,71.86v39.92h19.96v-39.92h-19.96ZM231.54,71.86v39.92h19.96v-39.92h-19.96ZM211.58,71.86v39.92h19.96v-39.92h-19.96ZM191.62,71.86v19.96h19.96v-19.96h-19.96ZM171.66,71.86v19.96h19.96v-19.96h-19.96ZM510.98,91.82v19.96h19.96v-19.96h-19.96ZM471.06,91.82v19.96h19.96v-19.96h-19.96ZM391.22,91.82v39.92h19.96v-39.92h-19.96ZM351.3,91.82v19.96h19.96v-19.96h-19.96ZM291.42,91.82v19.96h19.96v-19.96h-19.96ZM770.46,111.78v59.88h19.96v-59.88h-19.96ZM630.74,111.78v19.96h19.96v-19.96h-19.96ZM610.78,111.78v39.92h19.96v-39.92h-19.96ZM590.82,111.78v19.96h19.96v-19.96h-19.96ZM550.9,111.78v19.96h19.96v-19.96h-19.96ZM431.14,111.78v19.96h19.96v-19.96h-19.96ZM411.18,111.78v59.88h19.96v-59.88h-19.96ZM271.46,111.78v19.96h19.96v-19.96h-19.96ZM810.38,131.74v59.88h19.96v-59.88h-19.96ZM730.54,131.74v19.96h19.96v-19.96h-19.96ZM690.62,131.74v19.96h19.96v-19.96h-19.96ZM570.86,131.74v19.96h19.96v-19.96h-19.96ZM491.02,131.74v19.96h19.96v-19.96h-19.96ZM371.26,131.74v39.92h19.96v-39.92h-19.96ZM291.42,131.74v19.96h19.96v-19.96h-19.96ZM251.5,131.74v59.88h19.96v-59.88h-19.96ZM211.58,131.74v19.96h19.96v-19.96h-19.96ZM171.66,131.74v19.96h19.96v-19.96h-19.96ZM670.66,151.7v39.92h19.96v-39.92h-19.96ZM630.74,151.7v19.96h19.96v-19.96h-19.96ZM550.9,151.7v19.96h19.96v-19.96h-19.96ZM431.14,151.7v19.96h19.96v-19.96h-19.96ZM391.22,151.7v19.96h19.96v-19.96h-19.96ZM351.3,151.7v39.92h19.96v-39.92h-19.96ZM271.46,151.7v19.96h19.96v-19.96h-19.96ZM910.18,171.66v59.88h19.96v-59.88h-19.96ZM830.34,171.66v59.88h19.96v-59.88h-19.96ZM790.42,171.66v19.96h19.96v-19.96h-19.96ZM730.54,171.66v19.96h19.96v-19.96h-19.96ZM690.62,171.66v19.96h19.96v-19.96h-19.96ZM610.78,171.66v39.92h19.96v-39.92h-19.96ZM570.86,171.66v19.96h19.96v-19.96h-19.96ZM510.98,171.66v19.96h19.96v-19.96h-19.96ZM491.02,171.66v19.96h19.96v-19.96h-19.96ZM471.06,171.66v79.84h19.96v-79.84h-19.96ZM231.54,171.66v19.96h19.96v-19.96h-19.96ZM131.74,171.66v19.96h19.96v-19.96h-19.96ZM111.78,171.66v19.96h19.96v-19.96h-19.96ZM91.82,171.66v79.84h19.96v-79.84h-19.96ZM71.86,171.66v59.88h19.96v-59.88h-19.96ZM31.94,171.66v19.96h19.96v-19.96h-19.96ZM11.98,171.66v39.92h19.96v-39.92H11.98ZM970.06,191.62v19.96h19.96v-19.96h-19.96ZM950.1,191.62v19.96h19.96v-19.96h-19.96ZM930.14,191.62v19.96h19.96v-19.96h-19.96ZM870.26,191.62v39.92h19.96v-39.92h-19.96ZM710.58,191.62v39.92h19.96v-39.92h-19.96ZM331.34,191.62v19.96h19.96v-19.96h-19.96ZM291.42,191.62v59.88h19.96v-59.88h-19.96ZM271.46,191.62v99.8h19.96v-99.8h-19.96ZM211.58,191.62v19.96h19.96v-19.96h-19.96ZM191.62,191.62v19.96h19.96v-19.96h-19.96ZM171.66,191.62v39.92h19.96v-39.92h-19.96ZM151.7,191.62v39.92h19.96v-39.92h-19.96ZM51.9,191.62v19.96h19.96v-19.96h-19.96ZM850.3,211.58v19.96h19.96v-19.96h-19.96ZM810.38,211.58v39.92h19.96v-39.92h-19.96ZM750.5,211.58v19.96h19.96v-19.96h-19.96ZM650.7,211.58v39.92h19.96v-39.92h-19.96ZM570.86,211.58v19.96h19.96v-19.96h-19.96ZM550.9,211.58v19.96h19.96v-19.96h-19.96ZM491.02,211.58v79.84h19.96v-79.84h-19.96ZM391.22,211.58v59.88h19.96v-59.88h-19.96ZM371.26,211.58v19.96h19.96v-19.96h-19.96ZM351.3,211.58v79.84h19.96v-79.84h-19.96ZM131.74,211.58v19.96h19.96v-19.96h-19.96ZM31.94,211.58v39.92h19.96v-39.92h-19.96ZM930.14,231.54v39.92h19.96v-39.92h-19.96ZM890.22,231.54v59.88h19.96v-59.88h-19.96ZM730.54,231.54v59.88h19.96v-59.88h-19.96ZM690.62,231.54v19.96h19.96v-19.96h-19.96ZM510.98,231.54v19.96h19.96v-19.96h-19.96ZM431.14,231.54v19.96h19.96v-19.96h-19.96ZM411.18,231.54v19.96h19.96v-19.96h-19.96ZM251.5,231.54v39.92h19.96v-39.92h-19.96ZM51.9,231.54v19.96h19.96v-19.96h-19.96ZM950.1,251.5v19.96h19.96v-19.96h-19.96ZM850.3,251.5v39.92h19.96v-39.92h-19.96ZM790.42,251.5v19.96h19.96v-19.96h-19.96ZM750.5,251.5v139.72h19.96v-139.72h-19.96ZM710.58,251.5v19.96h19.96v-19.96h-19.96ZM630.74,251.5v79.84h19.96v-79.84h-19.96ZM610.78,251.5v19.96h19.96v-19.96h-19.96ZM530.94,251.5v99.8h19.96v-99.8h-19.96ZM331.34,251.5v19.96h19.96v-19.96h-19.96ZM311.38,251.5v19.96h19.96v-19.96h-19.96ZM231.54,251.5v39.92h19.96v-39.92h-19.96ZM211.58,251.5v19.96h19.96v-19.96h-19.96ZM191.62,251.5v19.96h19.96v-19.96h-19.96ZM171.66,251.5v119.76h19.96v-119.76h-19.96ZM151.7,251.5v219.56h19.96v-219.56h-19.96ZM131.74,251.5v19.96h19.96v-19.96h-19.96ZM111.78,251.5v19.96h19.96v-19.96h-19.96ZM11.98,251.5v39.92h19.96v-39.92H11.98ZM910.18,271.46v19.96h19.96v-19.96h-19.96ZM870.26,271.46v19.96h19.96v-19.96h-19.96ZM830.34,271.46v19.96h19.96v-19.96h-19.96ZM670.66,271.46v19.96h19.96v-19.96h-19.96ZM650.7,271.46v19.96h19.96v-19.96h-19.96ZM570.86,271.46v39.92h19.96v-39.92h-19.96ZM550.9,271.46v39.92h19.96v-39.92h-19.96ZM510.98,271.46v39.92h19.96v-39.92h-19.96ZM451.1,271.46v19.96h19.96v-19.96h-19.96ZM411.18,271.46v39.92h19.96v-39.92h-19.96ZM371.26,271.46v39.92h19.96v-39.92h-19.96ZM291.42,271.46v19.96h19.96v-19.96h-19.96ZM91.82,271.46v19.96h19.96v-19.96h-19.96ZM51.9,271.46v19.96h19.96v-19.96h-19.96ZM31.94,271.46v19.96h19.96v-19.96h-19.96ZM970.06,291.42v19.96h19.96v-19.96h-19.96ZM770.46,291.42v39.92h19.96v-39.92h-19.96ZM690.62,291.42v19.96h19.96v-19.96h-19.96ZM590.82,291.42v39.92h19.96v-39.92h-19.96ZM431.14,291.42v39.92h19.96v-39.92h-19.96ZM391.22,291.42v19.96h19.96v-19.96h-19.96ZM311.38,291.42v19.96h19.96v-19.96h-19.96ZM251.5,291.42v19.96h19.96v-19.96h-19.96ZM191.62,291.42v19.96h19.96v-19.96h-19.96ZM131.74,291.42v19.96h19.96v-19.96h-19.96ZM930.14,311.38v19.96h19.96v-19.96h-19.96ZM910.18,311.38v99.8h19.96v-99.8h-19.96ZM890.22,311.38v19.96h19.96v-19.96h-19.96ZM810.38,311.38v39.92h19.96v-39.92h-19.96ZM710.58,311.38v19.96h19.96v-19.96h-19.96ZM670.66,311.38v39.92h19.96v-39.92h-19.96ZM650.7,311.38v59.88h19.96v-59.88h-19.96ZM610.78,311.38v19.96h19.96v-19.96h-19.96ZM491.02,311.38v39.92h19.96v-39.92h-19.96ZM471.06,311.38v39.92h19.96v-39.92h-19.96ZM331.34,311.38v59.88h19.96v-59.88h-19.96ZM271.46,311.38v19.96h19.96v-19.96h-19.96ZM91.82,311.38v19.96h19.96v-19.96h-19.96ZM51.9,311.38v19.96h19.96v-19.96h-19.96ZM970.06,331.34v19.96h19.96v-19.96h-19.96ZM950.1,331.34v19.96h19.96v-19.96h-19.96ZM870.26,331.34v19.96h19.96v-19.96h-19.96ZM790.42,331.34v19.96h19.96v-19.96h-19.96ZM730.54,331.34v39.92h19.96v-39.92h-19.96ZM690.62,331.34v19.96h19.96v-19.96h-19.96ZM570.86,331.34v19.96h19.96v-19.96h-19.96ZM550.9,331.34v19.96h19.96v-19.96h-19.96ZM371.26,331.34v19.96h19.96v-19.96h-19.96ZM351.3,331.34v19.96h19.96v-19.96h-19.96ZM311.38,331.34v59.88h19.96v-59.88h-19.96ZM231.54,331.34v19.96h19.96v-19.96h-19.96ZM211.58,331.34v19.96h19.96v-19.96h-19.96ZM191.62,331.34v19.96h19.96v-19.96h-19.96ZM131.74,331.34v19.96h19.96v-19.96h-19.96ZM111.78,331.34v19.96h19.96v-19.96h-19.96ZM71.86,331.34v19.96h19.96v-19.96h-19.96ZM31.94,331.34v99.8h19.96v-99.8h-19.96ZM930.14,351.3v19.96h19.96v-19.96h-19.96ZM850.3,351.3v19.96h19.96v-19.96h-19.96ZM271.46,351.3v19.96h19.96v-19.96h-19.96ZM251.5,351.3v19.96h19.96v-19.96h-19.96ZM91.82,351.3v19.96h19.96v-19.96h-19.96ZM11.98,351.3v39.92h19.96v-39.92H11.98ZM970.06,371.26v19.96h19.96v-19.96h-19.96ZM870.26,371.26v19.96h19.96v-19.96h-19.96ZM710.58,371.26v19.96h19.96v-19.96h-19.96ZM690.62,371.26v19.96h19.96v-19.96h-19.96ZM231.54,371.26v19.96h19.96v-19.96h-19.96ZM131.74,371.26v19.96h19.96v-19.96h-19.96ZM111.78,371.26v59.88h19.96v-59.88h-19.96ZM71.86,371.26v39.92h19.96v-39.92h-19.96ZM890.22,391.22v159.68h19.96v-159.68h-19.96ZM830.34,391.22v19.96h19.96v-19.96h-19.96ZM730.54,391.22v19.96h19.96v-19.96h-19.96ZM650.7,391.22v19.96h19.96v-19.96h-19.96ZM271.46,391.22v19.96h19.96v-19.96h-19.96ZM251.5,391.22v19.96h19.96v-19.96h-19.96ZM211.58,391.22v19.96h19.96v-19.96h-19.96ZM191.62,391.22v19.96h19.96v-19.96h-19.96ZM171.66,391.22v39.92h19.96v-39.92h-19.96ZM91.82,391.22v19.96h19.96v-19.96h-19.96ZM930.14,411.18v19.96h19.96v-19.96h-19.96ZM870.26,411.18v59.88h19.96v-59.88h-19.96ZM810.38,411.18v19.96h19.96v-19.96h-19.96ZM790.42,411.18v19.96h19.96v-19.96h-19.96ZM770.46,411.18v39.92h19.96v-39.92h-19.96ZM750.5,411.18v19.96h19.96v-19.96h-19.96ZM710.58,411.18v19.96h19.96v-19.96h-19.96ZM690.62,411.18v19.96h19.96v-19.96h-19.96ZM311.38,411.18v39.92h19.96v-39.92h-19.96ZM231.54,411.18v59.88h19.96v-59.88h-19.96ZM131.74,411.18v19.96h19.96v-19.96h-19.96ZM11.98,411.18v39.92h19.96v-39.92H11.98ZM910.18,431.14v19.96h19.96v-19.96h-19.96ZM850.3,431.14v39.92h19.96v-39.92h-19.96ZM670.66,431.14v19.96h19.96v-19.96h-19.96ZM291.42,431.14v19.96h19.96v-19.96h-19.96ZM71.86,431.14v19.96h19.96v-19.96h-19.96ZM950.1,451.1v19.96h19.96v-19.96h-19.96ZM830.34,451.1v19.96h19.96v-19.96h-19.96ZM810.38,451.1v159.68h19.96v-159.68h-19.96ZM790.42,451.1v19.96h19.96v-19.96h-19.96ZM750.5,451.1v19.96h19.96v-19.96h-19.96ZM650.7,451.1v39.92h19.96v-39.92h-19.96ZM271.46,451.1v39.92h19.96v-39.92h-19.96ZM171.66,451.1v99.8h19.96v-99.8h-19.96ZM131.74,451.1v19.96h19.96v-19.96h-19.96ZM111.78,451.1v19.96h19.96v-19.96h-19.96ZM91.82,451.1v99.8h19.96v-99.8h-19.96ZM730.54,471.06v39.92h19.96v-39.92h-19.96ZM690.62,471.06v19.96h19.96v-19.96h-19.96ZM311.38,471.06v79.84h19.96v-79.84h-19.96ZM291.42,471.06v119.76h19.96v-119.76h-19.96ZM251.5,471.06v19.96h19.96v-19.96h-19.96ZM191.62,471.06v39.92h19.96v-39.92h-19.96ZM71.86,471.06v19.96h19.96v-19.96h-19.96ZM51.9,471.06v39.92h19.96v-39.92h-19.96ZM31.94,471.06v79.84h19.96v-79.84h-19.96ZM11.98,471.06v19.96h19.96v-19.96H11.98ZM950.1,491.02v19.96h19.96v-19.96h-19.96ZM910.18,491.02v19.96h19.96v-19.96h-19.96ZM850.3,491.02v19.96h19.96v-19.96h-19.96ZM770.46,491.02v159.68h19.96v-159.68h-19.96ZM750.5,491.02v19.96h19.96v-19.96h-19.96ZM710.58,491.02v19.96h19.96v-19.96h-19.96ZM331.34,491.02v19.96h19.96v-19.96h-19.96ZM131.74,491.02v19.96h19.96v-19.96h-19.96ZM790.42,510.98v19.96h19.96v-19.96h-19.96ZM690.62,510.98v39.92h19.96v-39.92h-19.96ZM670.66,510.98v19.96h19.96v-19.96h-19.96ZM650.7,510.98v39.92h19.96v-39.92h-19.96ZM271.46,510.98v79.84h19.96v-79.84h-19.96ZM71.86,510.98v59.88h19.96v-59.88h-19.96ZM11.98,510.98v19.96h19.96v-19.96H11.98ZM950.1,530.94v19.96h19.96v-19.96h-19.96ZM910.18,530.94v59.88h19.96v-59.88h-19.96ZM870.26,530.94v39.92h19.96v-39.92h-19.96ZM850.3,530.94v19.96h19.96v-19.96h-19.96ZM830.34,530.94v39.92h19.96v-39.92h-19.96ZM750.5,530.94v39.92h19.96v-39.92h-19.96ZM710.58,530.94v59.88h19.96v-59.88h-19.96ZM331.34,530.94v19.96h19.96v-19.96h-19.96ZM251.5,530.94v59.88h19.96v-59.88h-19.96ZM211.58,530.94v19.96h19.96v-19.96h-19.96ZM191.62,530.94v19.96h19.96v-19.96h-19.96ZM151.7,530.94v19.96h19.96v-19.96h-19.96ZM131.74,530.94v19.96h19.96v-19.96h-19.96ZM111.78,530.94v19.96h19.96v-19.96h-19.96ZM970.06,550.9v19.96h19.96v-19.96h-19.96ZM790.42,550.9v19.96h19.96v-19.96h-19.96ZM670.66,550.9v139.72h19.96v-139.72h-19.96ZM51.9,550.9v19.96h19.96v-19.96h-19.96ZM890.22,570.86v39.92h19.96v-39.92h-19.96ZM730.54,570.86v59.88h19.96v-59.88h-19.96ZM331.34,570.86v39.92h19.96v-39.92h-19.96ZM231.54,570.86v79.84h19.96v-79.84h-19.96ZM191.62,570.86v39.92h19.96v-39.92h-19.96ZM171.66,570.86v19.96h19.96v-19.96h-19.96ZM131.74,570.86v19.96h19.96v-19.96h-19.96ZM31.94,570.86v19.96h19.96v-19.96h-19.96ZM11.98,570.86v39.92h19.96v-39.92H11.98ZM790.42,590.82v39.92h19.96v-39.92h-19.96ZM750.5,590.82v59.88h19.96v-59.88h-19.96ZM211.58,590.82v59.88h19.96v-59.88h-19.96ZM91.82,590.82v39.92h19.96v-39.92h-19.96ZM71.86,590.82v19.96h19.96v-19.96h-19.96ZM51.9,590.82v39.92h19.96v-39.92h-19.96ZM950.1,610.78v39.92h19.96v-39.92h-19.96ZM930.14,610.78v19.96h19.96v-19.96h-19.96ZM910.18,610.78v19.96h19.96v-19.96h-19.96ZM850.3,610.78v19.96h19.96v-19.96h-19.96ZM710.58,610.78v19.96h19.96v-19.96h-19.96ZM311.38,610.78v19.96h19.96v-19.96h-19.96ZM251.5,610.78v19.96h19.96v-19.96h-19.96ZM171.66,610.78v39.92h19.96v-39.92h-19.96ZM131.74,610.78v19.96h19.96v-19.96h-19.96ZM111.78,610.78v39.92h19.96v-39.92h-19.96ZM31.94,610.78v19.96h19.96v-19.96h-19.96ZM970.06,630.74v39.92h19.96v-39.92h-19.96ZM870.26,630.74v59.88h19.96v-59.88h-19.96ZM810.38,630.74v59.88h19.96v-59.88h-19.96ZM650.7,630.74v39.92h19.96v-39.92h-19.96ZM291.42,630.74v39.92h19.96v-39.92h-19.96ZM271.46,630.74v39.92h19.96v-39.92h-19.96ZM71.86,630.74v59.88h19.96v-59.88h-19.96ZM11.98,630.74v39.92h19.96v-39.92H11.98ZM850.3,650.7v179.64h19.96v-179.64h-19.96ZM830.34,650.7v39.92h19.96v-39.92h-19.96ZM790.42,650.7v39.92h19.96v-39.92h-19.96ZM730.54,650.7v39.92h19.96v-39.92h-19.96ZM590.82,650.7v39.92h19.96v-39.92h-19.96ZM570.86,650.7v99.8h19.96v-99.8h-19.96ZM550.9,650.7v39.92h19.96v-39.92h-19.96ZM491.02,650.7v19.96h19.96v-19.96h-19.96ZM471.06,650.7v39.92h19.96v-39.92h-19.96ZM431.14,650.7v19.96h19.96v-19.96h-19.96ZM411.18,650.7v19.96h19.96v-19.96h-19.96ZM391.22,650.7v19.96h19.96v-19.96h-19.96ZM331.34,650.7v19.96h19.96v-19.96h-19.96ZM311.38,650.7v19.96h19.96v-19.96h-19.96ZM251.5,650.7v19.96h19.96v-19.96h-19.96ZM191.62,650.7v39.92h19.96v-39.92h-19.96ZM131.74,650.7v19.96h19.96v-19.96h-19.96ZM930.14,670.66v99.8h19.96v-99.8h-19.96ZM890.22,670.66v19.96h19.96v-19.96h-19.96ZM710.58,670.66v19.96h19.96v-19.96h-19.96ZM690.62,670.66v59.88h19.96v-59.88h-19.96ZM530.94,670.66v19.96h19.96v-19.96h-19.96ZM510.98,670.66v39.92h19.96v-39.92h-19.96ZM231.54,670.66v19.96h19.96v-19.96h-19.96ZM211.58,670.66v39.92h19.96v-39.92h-19.96ZM111.78,670.66v39.92h19.96v-39.92h-19.96ZM91.82,670.66v19.96h19.96v-19.96h-19.96ZM51.9,670.66v59.88h19.96v-59.88h-19.96ZM750.5,690.62v19.96h19.96v-19.96h-19.96ZM650.7,690.62v19.96h19.96v-19.96h-19.96ZM630.74,690.62v39.92h19.96v-39.92h-19.96ZM491.02,690.62v19.96h19.96v-19.96h-19.96ZM451.1,690.62v79.84h19.96v-79.84h-19.96ZM371.26,690.62v19.96h19.96v-19.96h-19.96ZM351.3,690.62v19.96h19.96v-19.96h-19.96ZM331.34,690.62v79.84h19.96v-79.84h-19.96ZM311.38,690.62v59.88h19.96v-59.88h-19.96ZM271.46,690.62v19.96h19.96v-19.96h-19.96ZM151.7,690.62v19.96h19.96v-19.96h-19.96ZM131.74,690.62v19.96h19.96v-19.96h-19.96ZM11.98,690.62v59.88h19.96v-59.88H11.98ZM950.1,710.58v39.92h19.96v-39.92h-19.96ZM910.18,710.58v19.96h19.96v-19.96h-19.96ZM890.22,710.58v79.84h19.96v-79.84h-19.96ZM730.54,710.58v59.88h19.96v-59.88h-19.96ZM710.58,710.58v79.84h19.96v-79.84h-19.96ZM670.66,710.58v59.88h19.96v-59.88h-19.96ZM610.78,710.58v19.96h19.96v-19.96h-19.96ZM550.9,710.58v39.92h19.96v-39.92h-19.96ZM530.94,710.58v239.52h19.96v-239.52h-19.96ZM471.06,710.58v39.92h19.96v-39.92h-19.96ZM391.22,710.58v79.84h19.96v-79.84h-19.96ZM251.5,710.58v59.88h19.96v-59.88h-19.96ZM231.54,710.58v39.92h19.96v-39.92h-19.96ZM171.66,710.58v39.92h19.96v-39.92h-19.96ZM91.82,710.58v39.92h19.96v-39.92h-19.96ZM31.94,710.58v19.96h19.96v-19.96h-19.96ZM970.06,730.54v39.92h19.96v-39.92h-19.96ZM870.26,730.54v99.8h19.96v-99.8h-19.96ZM830.34,730.54v59.88h19.96v-59.88h-19.96ZM810.38,730.54v19.96h19.96v-19.96h-19.96ZM790.42,730.54v39.92h19.96v-39.92h-19.96ZM750.5,730.54v39.92h19.96v-39.92h-19.96ZM510.98,730.54v19.96h19.96v-19.96h-19.96ZM491.02,730.54v39.92h19.96v-39.92h-19.96ZM411.18,730.54v159.68h19.96v-159.68h-19.96ZM291.42,730.54v59.88h19.96v-59.88h-19.96ZM211.58,730.54v39.92h19.96v-39.92h-19.96ZM131.74,730.54v19.96h19.96v-19.96h-19.96ZM111.78,730.54v59.88h19.96v-59.88h-19.96ZM610.78,750.5v19.96h19.96v-19.96h-19.96ZM590.82,750.5v119.76h19.96v-119.76h-19.96ZM431.14,750.5v19.96h19.96v-19.96h-19.96ZM271.46,750.5v19.96h19.96v-19.96h-19.96ZM151.7,750.5v19.96h19.96v-19.96h-19.96ZM71.86,750.5v19.96h19.96v-19.96h-19.96ZM950.1,770.46v39.92h19.96v-39.92h-19.96ZM810.38,770.46v19.96h19.96v-19.96h-19.96ZM770.46,770.46v19.96h19.96v-19.96h-19.96ZM650.7,770.46v19.96h19.96v-19.96h-19.96ZM570.86,770.46v19.96h19.96v-19.96h-19.96ZM550.9,770.46v19.96h19.96v-19.96h-19.96ZM371.26,770.46v59.88h19.96v-59.88h-19.96ZM311.38,770.46v59.88h19.96v-59.88h-19.96ZM131.74,770.46v19.96h19.96v-19.96h-19.96ZM31.94,770.46v59.88h19.96v-59.88h-19.96ZM970.06,790.42v39.92h19.96v-39.92h-19.96ZM930.14,790.42v19.96h19.96v-19.96h-19.96ZM910.18,790.42v39.92h19.96v-39.92h-19.96ZM750.5,790.42v39.92h19.96v-39.92h-19.96ZM670.66,790.42v79.84h19.96v-79.84h-19.96ZM491.02,790.42v39.92h19.96v-39.92h-19.96ZM471.06,790.42v39.92h19.96v-39.92h-19.96ZM451.1,790.42v119.76h19.96v-119.76h-19.96ZM351.3,790.42v19.96h19.96v-19.96h-19.96ZM271.46,790.42v39.92h19.96v-39.92h-19.96ZM231.54,790.42v19.96h19.96v-19.96h-19.96ZM191.62,790.42v19.96h19.96v-19.96h-19.96ZM151.7,790.42v19.96h19.96v-19.96h-19.96ZM71.86,790.42v19.96h19.96v-19.96h-19.96ZM51.9,790.42v39.92h19.96v-39.92h-19.96ZM890.22,810.38v119.76h19.96v-119.76h-19.96ZM830.34,810.38v19.96h19.96v-19.96h-19.96ZM810.38,810.38v99.8h19.96v-99.8h-19.96ZM710.58,810.38v59.88h19.96v-59.88h-19.96ZM690.62,810.38v19.96h19.96v-19.96h-19.96ZM650.7,810.38v19.96h19.96v-19.96h-19.96ZM630.74,810.38v19.96h19.96v-19.96h-19.96ZM570.86,810.38v39.92h19.96v-39.92h-19.96ZM510.98,810.38v19.96h19.96v-19.96h-19.96ZM391.22,810.38v39.92h19.96v-39.92h-19.96ZM211.58,810.38v39.92h19.96v-39.92h-19.96ZM131.74,810.38v19.96h19.96v-19.96h-19.96ZM11.98,810.38v19.96h19.96v-19.96H11.98ZM950.1,830.34v19.96h19.96v-19.96h-19.96ZM790.42,830.34v59.88h19.96v-59.88h-19.96ZM610.78,830.34v59.88h19.96v-59.88h-19.96ZM351.3,830.34v19.96h19.96v-19.96h-19.96ZM331.34,830.34v19.96h19.96v-19.96h-19.96ZM251.5,830.34v39.92h19.96v-39.92h-19.96ZM231.54,830.34v19.96h19.96v-19.96h-19.96ZM191.62,830.34v19.96h19.96v-19.96h-19.96ZM930.14,850.3v79.84h19.96v-79.84h-19.96ZM850.3,850.3v19.96h19.96v-19.96h-19.96ZM770.46,850.3v79.84h19.96v-79.84h-19.96ZM730.54,850.3v19.96h19.96v-19.96h-19.96ZM690.62,850.3v19.96h19.96v-19.96h-19.96ZM650.7,850.3v59.88h19.96v-59.88h-19.96ZM630.74,850.3v19.96h19.96v-19.96h-19.96ZM550.9,850.3v19.96h19.96v-19.96h-19.96ZM491.02,850.3v19.96h19.96v-19.96h-19.96ZM311.38,850.3v59.88h19.96v-59.88h-19.96ZM970.06,870.26v19.96h19.96v-19.96h-19.96ZM570.86,870.26v19.96h19.96v-19.96h-19.96ZM431.14,870.26v19.96h19.96v-19.96h-19.96ZM391.22,870.26v39.92h19.96v-39.92h-19.96ZM371.26,870.26v39.92h19.96v-39.92h-19.96ZM331.34,870.26v59.88h19.96v-59.88h-19.96ZM271.46,870.26v119.76h19.96v-119.76h-19.96ZM171.66,870.26v59.88h19.96v-59.88h-19.96ZM950.1,890.22v19.96h19.96v-19.96h-19.96ZM910.18,890.22v19.96h19.96v-19.96h-19.96ZM870.26,890.22v19.96h19.96v-19.96h-19.96ZM850.3,890.22v19.96h19.96v-19.96h-19.96ZM830.34,890.22v19.96h19.96v-19.96h-19.96ZM590.82,890.22v39.92h19.96v-39.92h-19.96ZM510.98,890.22v59.88h19.96v-59.88h-19.96ZM491.02,890.22v19.96h19.96v-19.96h-19.96ZM471.06,890.22v19.96h19.96v-19.96h-19.96ZM351.3,890.22v59.88h19.96v-59.88h-19.96ZM251.5,890.22v19.96h19.96v-19.96h-19.96ZM730.54,910.18v19.96h19.96v-19.96h-19.96ZM710.58,910.18v19.96h19.96v-19.96h-19.96ZM550.9,910.18v19.96h19.96v-19.96h-19.96ZM411.18,910.18v19.96h19.96v-19.96h-19.96ZM211.58,910.18v39.92h19.96v-39.92h-19.96ZM191.62,910.18v19.96h19.96v-19.96h-19.96ZM870.26,930.14v39.92h19.96v-39.92h-19.96ZM850.3,930.14v59.88h19.96v-59.88h-19.96ZM810.38,930.14v19.96h19.96v-19.96h-19.96ZM630.74,930.14v59.88h19.96v-59.88h-19.96ZM610.78,930.14v19.96h19.96v-19.96h-19.96ZM570.86,930.14v19.96h19.96v-19.96h-19.96ZM451.1,930.14v59.88h19.96v-59.88h-19.96ZM431.14,930.14v59.88h19.96v-59.88h-19.96ZM391.22,930.14v59.88h19.96v-59.88h-19.96ZM371.26,930.14v19.96h19.96v-19.96h-19.96ZM970.06,950.1v39.92h19.96v-39.92h-19.96ZM930.14,950.1v39.92h19.96v-39.92h-19.96ZM910.18,950.1v19.96h19.96v-19.96h-19.96ZM830.34,950.1v39.92h19.96v-39.92h-19.96ZM750.5,950.1v39.92h19.96v-39.92h-19.96ZM650.7,950.1v39.92h19.96v-39.92h-19.96ZM590.82,950.1v39.92h19.96v-39.92h-19.96ZM491.02,950.1v19.96h19.96v-19.96h-19.96ZM411.18,950.1v39.92h19.96v-39.92h-19.96ZM231.54,950.1v39.92h19.96v-39.92h-19.96ZM171.66,950.1v39.92h19.96v-39.92h-19.96ZM890.22,970.06v19.96h19.96v-19.96h-19.96ZM810.38,970.06v19.96h19.96v-19.96h-19.96ZM790.42,970.06v19.96h19.96v-19.96h-19.96ZM770.46,970.06v19.96h19.96v-19.96h-19.96ZM690.62,970.06v19.96h19.96v-19.96h-19.96ZM670.66,970.06v19.96h19.96v-19.96h-19.96ZM610.78,970.06v19.96h19.96v-19.96h-19.96ZM570.86,970.06v19.96h19.96v-19.96h-19.96ZM530.94,970.06v19.96h19.96v-19.96h-19.96ZM510.98,970.06v19.96h19.96v-19.96h-19.96ZM371.26,970.06v19.96h19.96v-19.96h-19.96ZM351.3,970.06v19.96h19.96v-19.96h-19.96ZM331.34,970.06v19.96h19.96v-19.96h-19.96ZM291.42,970.06v19.96h19.96v-19.96h-19.96ZM251.5,970.06v19.96h19.96v-19.96h-19.96ZM211.58,970.06v19.96h19.96v-19.96h-19.96ZM191.62,970.06v19.96h19.96v-19.96h-19.96Z"/>
            <g class="cls-13">
              <rect class="cls-4" x="2" y="2" width="998" height="998"/>
            </g>
          </g>
          <g>
            <path class="cls-2" d="M11.98,11.98v139.72h139.72V11.98H11.98ZM31.94,31.94h99.8v99.8H31.94V31.94ZM91.82,51.9v59.88h19.96v-59.88h-19.96ZM71.86,51.9v59.88h19.96v-59.88h-19.96ZM51.9,51.9v59.88h19.96v-59.88h-19.96Z"/>
            <g class="cls-16">
              <rect class="cls-4" x="11.98" y="11.98" width="139.72" height="139.72"/>
            </g>
          </g>
          <g>
            <path class="cls-2" d="M850.3,11.98v139.72h139.72V11.98h-139.72ZM870.26,31.94h99.8v99.8h-99.8V31.94ZM930.14,51.9v59.88h19.96v-59.88h-19.96ZM910.18,51.9v59.88h19.96v-59.88h-19.96ZM890.22,51.9v59.88h19.96v-59.88h-19.96Z"/>
            <g class="cls-11">
              <rect class="cls-4" x="850.3" y="11.98" width="139.72" height="139.72"/>
            </g>
          </g>
          <g>
            <path class="cls-2" d="M11.98,850.3v139.72h139.72v-139.72H11.98ZM31.94,870.26h99.8v99.8H31.94v-99.8ZM91.82,890.22v59.88h19.96v-59.88h-19.96ZM71.86,890.22v59.88h19.96v-59.88h-19.96ZM51.9,890.22v59.88h19.96v-59.88h-19.96Z"/>
            <g class="cls-1">
              <rect class="cls-4" x="11.98" y="850.3" width="139.72" height="139.72"/>
            </g>
          </g>
        </g>
        <g>
          <g>
            <rect class="cls-9" x="453.75" y="421.16" width="16.69" height="119.26" rx=".58" ry=".58"/>
            <rect class="cls-10" x="420.08" y="421.16" width="16.69" height="119.26" rx=".56" ry=".56"/>
            <path class="cls-9" d="M516.08,531.9l4.61,7.99c.14.24-.03.53-.31.53h-18.85c-.13,0-.24-.07-.31-.18l-4.81-8.34-4.92-8.52-4.92-8.52-4.92-8.51-4.92-8.52-4.92-8.51-4.82-8.34c-.06-.11-.06-.25,0-.36l4.81-8.34,4.92-8.52,4.92-8.51,4.92-8.52,4.92-8.52,4.92-8.51,4.81-8.34c.06-.11.18-.18.31-.18h18.85c.27,0,.45.3.31.53l-4.61,7.99-4.92,8.51-4.92,8.52-4.92,8.52-4.92,8.51-4.92,8.52-4.81,8.34c-.06.11-.06.25,0,.36l4.82,8.34,4.92,8.51,4.92,8.52,4.92,8.51,4.92,8.52,4.92,8.52Z"/>
            <path class="cls-10" d="M587.17,523.38l-4.92-8.52-4.92-8.51-4.92-8.52-4.92-8.51-4.12-7.13c-.5-.86-.5-1.92,0-2.78l4.11-7.12,4.92-8.52,4.92-8.51,4.92-8.52,4.92-8.52,4.92-8.51,2.51-4.35c1.07-1.85-.27-4.17-2.41-4.17h-52.6c-.99,0-1.91.53-2.41,1.39l-4.11,7.13-4.92,8.51-4.92,8.52-4.92,8.52-4.92,8.51-4.92,8.52-4.11,7.12c-.5.86-.5,1.92,0,2.78l4.12,7.13,4.92,8.51,4.92,8.52,4.92,8.51,4.92,8.52,4.92,8.52,4.11,7.13c.5.86,1.41,1.39,2.41,1.39h52.6c2.14,0,3.48-2.32,2.41-4.17l-2.51-4.35-4.92-8.52ZM532.96,472.27c-2.14,0-3.48-2.32-2.41-4.17l2.51-4.35,4.92-8.51,4.92-8.52,4.12-7.13c.5-.86,1.41-1.39,2.41-1.39h13.25c2.14,0,3.48,2.32,2.41,4.17l-2.51,4.35-4.92,8.52-4.92,8.51-4.12,7.13c-.5.86-1.41,1.39-2.41,1.39h-13.25ZM549.43,523.38c-.99,0-1.91-.53-2.41-1.39l-4.12-7.13-4.92-8.51-4.92-8.52-2.51-4.34c-1.07-1.85.27-4.17,2.41-4.17h13.25c.99,0,1.91.53,2.41,1.39l4.11,7.12,4.92,8.52,4.92,8.51,2.51,4.35c1.07,1.85-.27,4.17-2.41,4.17h-13.25Z"/>
            <g class="cls-14">
              <g>
                <polygon class="cls-7" points="486.57 480.79 494.53 494.21 474.64 494.21 466.9 480.79 486.57 480.79"/>
                <polygon class="cls-8" points="494.32 467.37 486.57 480.79 466.9 480.79 474.64 467.37 494.32 467.37"/>
              </g>
            </g>
          </g>
          <text class="cls-5" transform="translate(414.08 587.56)"><tspan x="0" y="0">COMPANY</tspan></text>
        </g>
      </g>
    </g>
  </g>
</svg>