<svg xmlns="http://www.w3.org/2000/svg" viewBox="0 0 1000 1000">
    <defs>
        <clipPath id="clippath-2">
            <path class="cls-4" d="M2.99 2.99h1l-1 1v-1z"/>
        </clipPath>
        <clipPath id="clippath-3">
            <path style="stroke-width:0;clip-path:url(#clippath-2);fill:#e8e8e8" d="M1 1H0l1-1v1z"/>
        </clipPath>
        <clipPath id="clippath-7">
            <path class="cls-4" d="M810.38 11.98v59.88h19.96V11.98h-19.96Zm-59.88 0v19.96h19.96V11.98H750.5Zm-19.96 0v19.96h19.96V11.98h-19.96Zm-19.96 0V51.9h19.96V11.98h-19.96Zm-19.96 0v19.96h19.96V11.98h-19.96Zm-59.88 0v19.96h19.96V11.98h-19.96Zm-39.92 0v19.96h19.96V11.98h-19.96Zm-39.92 0v19.96h19.96V11.98H550.9Zm-19.96 0v179.64h19.96V11.98h-19.96Zm-59.88 0V51.9h19.96V11.98h-19.96Zm-59.88 0V51.9h19.96V11.98h-19.96Zm-19.96 0v59.88h19.96V11.98h-19.96Zm-39.92 0V51.9h19.96V11.98H351.3Zm-19.96 0v159.68h19.96V11.98h-19.96Zm-19.96 0v19.96h19.96V11.98h-19.96Zm-19.96 0v59.88h19.96V11.98h-19.96Zm-19.96 0v79.84h19.96V11.98h-19.96Zm-39.92 0V51.9h19.96V11.98h-19.96Zm-39.92 0V51.9h19.96V11.98h-19.96Zm598.8 19.96v59.88h19.96V31.94h-19.96Zm-19.96 0V51.9h19.96V31.94h-19.96Zm-99.8 0v99.8h19.96v-99.8h-19.96Zm-19.96 0V51.9h19.96V31.94H650.7Zm-39.92 0v59.88h19.96V31.94h-19.96Zm-159.68 0v179.64h19.96V31.94H451.1ZM750.5 51.9v59.88h19.96V51.9H750.5Zm-19.96 0v19.96h19.96V51.9h-19.96Zm-39.92 0v59.88h19.96V51.9h-19.96Zm-119.76 0v39.92h19.96V51.9h-19.96Zm-59.88 0v19.96h19.96V51.9h-19.96Zm-19.96 0v59.88h19.96V51.9h-19.96Zm-179.64 0v19.96h19.96V51.9h-19.96Zm-59.88 0v39.92h19.96V51.9H251.5Zm459.08 19.96v59.88h19.96V71.86h-19.96Zm-59.88 0v99.8h19.96v-99.8H650.7Zm-19.96 0v19.96h19.96V71.86h-19.96Zm-39.92 0v19.96h19.96V71.86h-19.96Zm-39.92 0v19.96h19.96V71.86H550.9Zm-119.76 0v19.96h19.96V71.86h-19.96Zm-59.88 0v39.92h19.96V71.86h-19.96Zm-139.72 0v39.92h19.96V71.86h-19.96Zm-19.96 0v39.92h19.96V71.86h-19.96Zm-19.96 0v19.96h19.96V71.86h-19.96Zm-19.96 0v19.96h19.96V71.86h-19.96Zm339.32 19.96v19.96h19.96V91.82h-19.96Zm-39.92 0v19.96h19.96V91.82h-19.96Zm-79.84 0v39.92h19.96V91.82h-19.96Zm-39.92 0v19.96h19.96V91.82H351.3Zm-59.88 0v19.96h19.96V91.82h-19.96Zm479.04 19.96v59.88h19.96v-59.88h-19.96Zm-139.72 0v19.96h19.96v-19.96h-19.96Zm-19.96 0v39.92h19.96v-39.92h-19.96Zm-19.96 0v19.96h19.96v-19.96h-19.96Zm-39.92 0v19.96h19.96v-19.96H550.9Zm-119.76 0v19.96h19.96v-19.96h-19.96Zm-19.96 0v59.88h19.96v-59.88h-19.96Zm-139.72 0v19.96h19.96v-19.96h-19.96Zm538.92 19.96v59.88h19.96v-59.88h-19.96Zm-79.84 0v19.96h19.96v-19.96h-19.96Zm-39.92 0v19.96h19.96v-19.96h-19.96Zm-119.76 0v19.96h19.96v-19.96h-19.96Zm-79.84 0v19.96h19.96v-19.96h-19.96Zm-119.76 0v39.92h19.96v-39.92h-19.96Zm-79.84 0v19.96h19.96v-19.96h-19.96Zm-39.92 0v59.88h19.96v-59.88H251.5Zm-39.92 0v19.96h19.96v-19.96h-19.96Zm-39.92 0v19.96h19.96v-19.96h-19.96Zm499 19.96v39.92h19.96V151.7h-19.96Zm-39.92 0v19.96h19.96V151.7h-19.96Zm-79.84 0v19.96h19.96V151.7H550.9Zm-119.76 0v19.96h19.96V151.7h-19.96Zm-39.92 0v19.96h19.96V151.7h-19.96Zm-39.92 0v39.92h19.96V151.7H351.3Zm-79.84 0v19.96h19.96V151.7h-19.96Zm638.72 19.96v59.88h19.96v-59.88h-19.96Zm-79.84 0v59.88h19.96v-59.88h-19.96Zm-39.92 0v19.96h19.96v-19.96h-19.96Zm-59.88 0v19.96h19.96v-19.96h-19.96Zm-39.92 0v19.96h19.96v-19.96h-19.96Zm-79.84 0v39.92h19.96v-39.92h-19.96Zm-39.92 0v19.96h19.96v-19.96h-19.96Zm-59.88 0v19.96h19.96v-19.96h-19.96Zm-19.96 0v19.96h19.96v-19.96h-19.96Zm-19.96 0v79.84h19.96v-79.84h-19.96Zm-239.52 0v19.96h19.96v-19.96h-19.96Zm-99.8 0v19.96h19.96v-19.96h-19.96Zm-19.96 0v19.96h19.96v-19.96h-19.96Zm-19.96 0v79.84h19.96v-79.84H91.82Zm-19.96 0v59.88h19.96v-59.88H71.86Zm-39.92 0v19.96H51.9v-19.96H31.94Zm-19.96 0v39.92h19.96v-39.92H11.98Zm958.08 19.96v19.96h19.96v-19.96h-19.96Zm-19.96 0v19.96h19.96v-19.96H950.1Zm-19.96 0v19.96h19.96v-19.96h-19.96Zm-59.88 0v39.92h19.96v-39.92h-19.96Zm-159.68 0v39.92h19.96v-39.92h-19.96Zm-379.24 0v19.96h19.96v-19.96h-19.96Zm-39.92 0v59.88h19.96v-59.88h-19.96Zm-19.96 0v99.8h19.96v-99.8h-19.96Zm-59.88 0v19.96h19.96v-19.96h-19.96Zm-19.96 0v19.96h19.96v-19.96h-19.96Zm-19.96 0v39.92h19.96v-39.92h-19.96Zm-19.96 0v39.92h19.96v-39.92H151.7Zm-99.8 0v19.96h19.96v-19.96H51.9Zm798.4 19.96v19.96h19.96v-19.96H850.3Zm-39.92 0v39.92h19.96v-39.92h-19.96Zm-59.88 0v19.96h19.96v-19.96H750.5Zm-99.8 0v39.92h19.96v-39.92H650.7Zm-79.84 0v19.96h19.96v-19.96h-19.96Zm-19.96 0v19.96h19.96v-19.96H550.9Zm-59.88 0v79.84h19.96v-79.84h-19.96Zm-99.8 0v59.88h19.96v-59.88h-19.96Zm-19.96 0v19.96h19.96v-19.96h-19.96Zm-19.96 0v79.84h19.96v-79.84H351.3Zm-219.56 0v19.96h19.96v-19.96h-19.96Zm-99.8 0v39.92H51.9v-39.92H31.94Zm898.2 19.96v39.92h19.96v-39.92h-19.96Zm-39.92 0v59.88h19.96v-59.88h-19.96Zm-159.68 0v59.88h19.96v-59.88h-19.96Zm-39.92 0v19.96h19.96v-19.96h-19.96Zm-179.64 0v19.96h19.96v-19.96h-19.96Zm-79.84 0v19.96h19.96v-19.96h-19.96Zm-19.96 0v19.96h19.96v-19.96h-19.96Zm-159.68 0v39.92h19.96v-39.92H251.5Zm-199.6 0v19.96h19.96v-19.96H51.9Zm898.2 19.96v19.96h19.96V251.5H950.1Zm-99.8 0v39.92h19.96V251.5H850.3Zm-59.88 0v19.96h19.96V251.5h-19.96Zm-39.92 0v139.72h19.96V251.5H750.5Zm-39.92 0v19.96h19.96V251.5h-19.96Zm-79.84 0v79.84h19.96V251.5h-19.96Zm-19.96 0v19.96h19.96V251.5h-19.96Zm-79.84 0v99.8h19.96v-99.8h-19.96Zm-199.6 0v19.96h19.96V251.5h-19.96Zm-19.96 0v19.96h19.96V251.5h-19.96Zm-79.84 0v39.92h19.96V251.5h-19.96Zm-19.96 0v19.96h19.96V251.5h-19.96Zm-19.96 0v19.96h19.96V251.5h-19.96Zm-19.96 0v119.76h19.96V251.5h-19.96Zm-19.96 0v219.56h19.96V251.5H151.7Zm-19.96 0v19.96h19.96V251.5h-19.96Zm-19.96 0v19.96h19.96V251.5h-19.96Zm-99.8 0v39.92h19.96V251.5H11.98Zm898.2 19.96v19.96h19.96v-19.96h-19.96Zm-39.92 0v19.96h19.96v-19.96h-19.96Zm-39.92 0v19.96h19.96v-19.96h-19.96Zm-159.68 0v19.96h19.96v-19.96h-19.96Zm-19.96 0v19.96h19.96v-19.96H650.7Zm-79.84 0v39.92h19.96v-39.92h-19.96Zm-19.96 0v39.92h19.96v-39.92H550.9Zm-39.92 0v39.92h19.96v-39.92h-19.96Zm-59.88 0v19.96h19.96v-19.96H451.1Zm-39.92 0v39.92h19.96v-39.92h-19.96Zm-39.92 0v39.92h19.96v-39.92h-19.96Zm-79.84 0v19.96h19.96v-19.96h-19.96Zm-199.6 0v19.96h19.96v-19.96H91.82Zm-39.92 0v19.96h19.96v-19.96H51.9Zm-19.96 0v19.96H51.9v-19.96H31.94Zm938.12 19.96v19.96h19.96v-19.96h-19.96Zm-199.6 0v39.92h19.96v-39.92h-19.96Zm-79.84 0v19.96h19.96v-19.96h-19.96Zm-99.8 0v39.92h19.96v-39.92h-19.96Zm-159.68 0v39.92h19.96v-39.92h-19.96Zm-39.92 0v19.96h19.96v-19.96h-19.96Zm-79.84 0v19.96h19.96v-19.96h-19.96Zm-59.88 0v19.96h19.96v-19.96H251.5Zm-59.88 0v19.96h19.96v-19.96h-19.96Zm-59.88 0v19.96h19.96v-19.96h-19.96Zm798.4 19.96v19.96h19.96v-19.96h-19.96Zm-19.96 0v99.8h19.96v-99.8h-19.96Zm-19.96 0v19.96h19.96v-19.96h-19.96Zm-79.84 0v39.92h19.96v-39.92h-19.96Zm-99.8 0v19.96h19.96v-19.96h-19.96Zm-39.92 0v39.92h19.96v-39.92h-19.96Zm-19.96 0v59.88h19.96v-59.88H650.7Zm-39.92 0v19.96h19.96v-19.96h-19.96Zm-119.76 0v39.92h19.96v-39.92h-19.96Zm-19.96 0v39.92h19.96v-39.92h-19.96Zm-139.72 0v59.88h19.96v-59.88h-19.96Zm-59.88 0v19.96h19.96v-19.96h-19.96Zm-179.64 0v19.96h19.96v-19.96H91.82Zm-39.92 0v19.96h19.96v-19.96H51.9Zm918.16 19.96v19.96h19.96v-19.96h-19.96Zm-19.96 0v19.96h19.96v-19.96H950.1Zm-79.84 0v19.96h19.96v-19.96h-19.96Zm-79.84 0v19.96h19.96v-19.96h-19.96Zm-59.88 0v39.92h19.96v-39.92h-19.96Zm-39.92 0v19.96h19.96v-19.96h-19.96Zm-119.76 0v19.96h19.96v-19.96h-19.96Zm-19.96 0v19.96h19.96v-19.96H550.9Zm-179.64 0v19.96h19.96v-19.96h-19.96Zm-19.96 0v19.96h19.96v-19.96H351.3Zm-39.92 0v59.88h19.96v-59.88h-19.96Zm-79.84 0v19.96h19.96v-19.96h-19.96Zm-19.96 0v19.96h19.96v-19.96h-19.96Zm-19.96 0v19.96h19.96v-19.96h-19.96Zm-59.88 0v19.96h19.96v-19.96h-19.96Zm-19.96 0v19.96h19.96v-19.96h-19.96Zm-39.92 0v19.96h19.96v-19.96H71.86Zm-39.92 0v99.8H51.9v-99.8H31.94Zm898.2 19.96v19.96h19.96V351.3h-19.96Zm-79.84 0v19.96h19.96V351.3H850.3Zm-578.84 0v19.96h19.96V351.3h-19.96Zm-19.96 0v19.96h19.96V351.3H251.5Zm-159.68 0v19.96h19.96V351.3H91.82Zm-79.84 0v39.92h19.96V351.3H11.98Zm958.08 19.96v19.96h19.96v-19.96h-19.96Zm-99.8 0v19.96h19.96v-19.96h-19.96Zm-159.68 0v19.96h19.96v-19.96h-19.96Zm-19.96 0v19.96h19.96v-19.96h-19.96Zm-459.08 0v19.96h19.96v-19.96h-19.96Zm-99.8 0v19.96h19.96v-19.96h-19.96Zm-19.96 0v59.88h19.96v-59.88h-19.96Zm-39.92 0v39.92h19.96v-39.92H71.86Zm818.36 19.96V550.9h19.96V391.22h-19.96Zm-59.88 0v19.96h19.96v-19.96h-19.96Zm-99.8 0v19.96h19.96v-19.96h-19.96Zm-79.84 0v19.96h19.96v-19.96H650.7Zm-379.24 0v19.96h19.96v-19.96h-19.96Zm-19.96 0v19.96h19.96v-19.96H251.5Zm-39.92 0v19.96h19.96v-19.96h-19.96Zm-19.96 0v19.96h19.96v-19.96h-19.96Zm-19.96 0v39.92h19.96v-39.92h-19.96Zm-79.84 0v19.96h19.96v-19.96H91.82Zm838.32 19.96v19.96h19.96v-19.96h-19.96Zm-59.88 0v59.88h19.96v-59.88h-19.96Zm-59.88 0v19.96h19.96v-19.96h-19.96Zm-19.96 0v19.96h19.96v-19.96h-19.96Zm-19.96 0v39.92h19.96v-39.92h-19.96Zm-19.96 0v19.96h19.96v-19.96H750.5Zm-39.92 0v19.96h19.96v-19.96h-19.96Zm-19.96 0v19.96h19.96v-19.96h-19.96Zm-379.24 0v39.92h19.96v-39.92h-19.96Zm-79.84 0v59.88h19.96v-59.88h-19.96Zm-99.8 0v19.96h19.96v-19.96h-19.96Zm-119.76 0v39.92h19.96v-39.92H11.98Zm898.2 19.96v19.96h19.96v-19.96h-19.96Zm-59.88 0v39.92h19.96v-39.92H850.3Zm-179.64 0v19.96h19.96v-19.96h-19.96Zm-379.24 0v19.96h19.96v-19.96h-19.96Zm-219.56 0v19.96h19.96v-19.96H71.86ZM950.1 451.1v19.96h19.96V451.1H950.1Zm-119.76 0v19.96h19.96V451.1h-19.96Zm-19.96 0v159.68h19.96V451.1h-19.96Zm-19.96 0v19.96h19.96V451.1h-19.96Zm-39.92 0v19.96h19.96V451.1H750.5Zm-99.8 0v39.92h19.96V451.1H650.7Zm-379.24 0v39.92h19.96V451.1h-19.96Zm-99.8 0v99.8h19.96v-99.8h-19.96Zm-39.92 0v19.96h19.96V451.1h-19.96Zm-19.96 0v19.96h19.96V451.1h-19.96Zm-19.96 0v99.8h19.96v-99.8H91.82Zm638.72 19.96v39.92h19.96v-39.92h-19.96Zm-39.92 0v19.96h19.96v-19.96h-19.96Zm-379.24 0v79.84h19.96v-79.84h-19.96Zm-19.96 0v119.76h19.96V471.06h-19.96Zm-39.92 0v19.96h19.96v-19.96H251.5Zm-59.88 0v39.92h19.96v-39.92h-19.96Zm-119.76 0v19.96h19.96v-19.96H71.86Zm-19.96 0v39.92h19.96v-39.92H51.9Zm-19.96 0v79.84H51.9v-79.84H31.94Zm-19.96 0v19.96h19.96v-19.96H11.98Zm938.12 19.96v19.96h19.96v-19.96H950.1Zm-39.92 0v19.96h19.96v-19.96h-19.96Zm-59.88 0v19.96h19.96v-19.96H850.3Zm-79.84 0V650.7h19.96V491.02h-19.96Zm-19.96 0v19.96h19.96v-19.96H750.5Zm-39.92 0v19.96h19.96v-19.96h-19.96Zm-379.24 0v19.96h19.96v-19.96h-19.96Zm-199.6 0v19.96h19.96v-19.96h-19.96Zm658.68 19.96v19.96h19.96v-19.96h-19.96Zm-99.8 0v39.92h19.96v-39.92h-19.96Zm-19.96 0v19.96h19.96v-19.96h-19.96Zm-19.96 0v39.92h19.96v-39.92H650.7Zm-379.24 0v79.84h19.96v-79.84h-19.96Zm-199.6 0v59.88h19.96v-59.88H71.86Zm-59.88 0v19.96h19.96v-19.96H11.98Zm938.12 19.96v19.96h19.96v-19.96H950.1Zm-39.92 0v59.88h19.96v-59.88h-19.96Zm-39.92 0v39.92h19.96v-39.92h-19.96Zm-19.96 0v19.96h19.96v-19.96H850.3Zm-19.96 0v39.92h19.96v-39.92h-19.96Zm-79.84 0v39.92h19.96v-39.92H750.5Zm-39.92 0v59.88h19.96v-59.88h-19.96Zm-379.24 0v19.96h19.96v-19.96h-19.96Zm-79.84 0v59.88h19.96v-59.88H251.5Zm-39.92 0v19.96h19.96v-19.96h-19.96Zm-19.96 0v19.96h19.96v-19.96h-19.96Zm-39.92 0v19.96h19.96v-19.96H151.7Zm-19.96 0v19.96h19.96v-19.96h-19.96Zm-19.96 0v19.96h19.96v-19.96h-19.96Zm858.28 19.96v19.96h19.96V550.9h-19.96Zm-179.64 0v19.96h19.96V550.9h-19.96Zm-119.76 0v139.72h19.96V550.9h-19.96Zm-618.76 0v19.96h19.96V550.9H51.9Zm838.32 19.96v39.92h19.96v-39.92h-19.96Zm-159.68 0v59.88h19.96v-59.88h-19.96Zm-399.2 0v39.92h19.96v-39.92h-19.96Zm-99.8 0v79.84h19.96v-79.84h-19.96Zm-39.92 0v39.92h19.96v-39.92h-19.96Zm-19.96 0v19.96h19.96v-19.96h-19.96Zm-39.92 0v19.96h19.96v-19.96h-19.96Zm-99.8 0v19.96H51.9v-19.96H31.94Zm-19.96 0v39.92h19.96v-39.92H11.98Zm778.44 19.96v39.92h19.96v-39.92h-19.96Zm-39.92 0v59.88h19.96v-59.88H750.5Zm-538.92 0v59.88h19.96v-59.88h-19.96Zm-119.76 0v39.92h19.96v-39.92H91.82Zm-19.96 0v19.96h19.96v-19.96H71.86Zm-19.96 0v39.92h19.96v-39.92H51.9Zm898.2 19.96v39.92h19.96v-39.92H950.1Zm-19.96 0v19.96h19.96v-19.96h-19.96Zm-19.96 0v19.96h19.96v-19.96h-19.96Zm-59.88 0v19.96h19.96v-19.96H850.3Zm-139.72 0v19.96h19.96v-19.96h-19.96Zm-399.2 0v19.96h19.96v-19.96h-19.96Zm-59.88 0v19.96h19.96v-19.96H251.5Zm-79.84 0v39.92h19.96v-39.92h-19.96Zm-39.92 0v19.96h19.96v-19.96h-19.96Zm-19.96 0v39.92h19.96v-39.92h-19.96Zm-79.84 0v19.96H51.9v-19.96H31.94Zm938.12 19.96v39.92h19.96v-39.92h-19.96Zm-99.8 0v59.88h19.96v-59.88h-19.96Zm-59.88 0v59.88h19.96v-59.88h-19.96Zm-159.68 0v39.92h19.96v-39.92H650.7Zm-359.28 0v39.92h19.96v-39.92h-19.96Zm-19.96 0v39.92h19.96v-39.92h-19.96Zm-199.6 0v59.88h19.96v-59.88H71.86Zm-59.88 0v39.92h19.96v-39.92H11.98ZM850.3 650.7v179.64h19.96V650.7H850.3Zm-19.96 0v39.92h19.96V650.7h-19.96Zm-39.92 0v39.92h19.96V650.7h-19.96Zm-59.88 0v39.92h19.96V650.7h-19.96Zm-139.72 0v39.92h19.96V650.7h-19.96Zm-19.96 0v99.8h19.96v-99.8h-19.96Zm-19.96 0v39.92h19.96V650.7H550.9Zm-59.88 0v19.96h19.96V650.7h-19.96Zm-19.96 0v39.92h19.96V650.7h-19.96Zm-39.92 0v19.96h19.96V650.7h-19.96Zm-19.96 0v19.96h19.96V650.7h-19.96Zm-19.96 0v19.96h19.96V650.7h-19.96Zm-59.88 0v19.96h19.96V650.7h-19.96Zm-19.96 0v19.96h19.96V650.7h-19.96Zm-59.88 0v19.96h19.96V650.7H251.5Zm-59.88 0v39.92h19.96V650.7h-19.96Zm-59.88 0v19.96h19.96V650.7h-19.96Zm798.4 19.96v99.8h19.96v-99.8h-19.96Zm-39.92 0v19.96h19.96v-19.96h-19.96Zm-179.64 0v19.96h19.96v-19.96h-19.96Zm-19.96 0v59.88h19.96v-59.88h-19.96Zm-159.68 0v19.96h19.96v-19.96h-19.96Zm-19.96 0v39.92h19.96v-39.92h-19.96Zm-279.44 0v19.96h19.96v-19.96h-19.96Zm-19.96 0v39.92h19.96v-39.92h-19.96Zm-99.8 0v39.92h19.96v-39.92h-19.96Zm-19.96 0v19.96h19.96v-19.96H91.82Zm-39.92 0v59.88h19.96v-59.88H51.9Zm698.6 19.96v19.96h19.96v-19.96H750.5Zm-99.8 0v19.96h19.96v-19.96H650.7Zm-19.96 0v39.92h19.96v-39.92h-19.96Zm-139.72 0v19.96h19.96v-19.96h-19.96Zm-39.92 0v79.84h19.96v-79.84H451.1Zm-79.84 0v19.96h19.96v-19.96h-19.96Zm-19.96 0v19.96h19.96v-19.96H351.3Zm-19.96 0v79.84h19.96v-79.84h-19.96Zm-19.96 0v59.88h19.96v-59.88h-19.96Zm-39.92 0v19.96h19.96v-19.96h-19.96Zm-119.76 0v19.96h19.96v-19.96H151.7Zm-19.96 0v19.96h19.96v-19.96h-19.96Zm-119.76 0v59.88h19.96v-59.88H11.98Zm938.12 19.96v39.92h19.96v-39.92H950.1Zm-39.92 0v19.96h19.96v-19.96h-19.96Zm-19.96 0v79.84h19.96v-79.84h-19.96Zm-159.68 0v59.88h19.96v-59.88h-19.96Zm-19.96 0v79.84h19.96v-79.84h-19.96Zm-39.92 0v59.88h19.96v-59.88h-19.96Zm-59.88 0v19.96h19.96v-19.96h-19.96Zm-59.88 0v39.92h19.96v-39.92H550.9Zm-19.96 0V950.1h19.96V710.58h-19.96Zm-59.88 0v39.92h19.96v-39.92h-19.96Zm-79.84 0v79.84h19.96v-79.84h-19.96Zm-139.72 0v59.88h19.96v-59.88H251.5Zm-19.96 0v39.92h19.96v-39.92h-19.96Zm-59.88 0v39.92h19.96v-39.92h-19.96Zm-79.84 0v39.92h19.96v-39.92H91.82Zm-59.88 0v19.96H51.9v-19.96H31.94Zm938.12 19.96v39.92h19.96v-39.92h-19.96Zm-99.8 0v99.8h19.96v-99.8h-19.96Zm-39.92 0v59.88h19.96v-59.88h-19.96Zm-19.96 0v19.96h19.96v-19.96h-19.96Zm-19.96 0v39.92h19.96v-39.92h-19.96Zm-39.92 0v39.92h19.96v-39.92H750.5Zm-239.52 0v19.96h19.96v-19.96h-19.96Zm-19.96 0v39.92h19.96v-39.92h-19.96Zm-79.84 0v159.68h19.96V730.54h-19.96Zm-119.76 0v59.88h19.96v-59.88h-19.96Zm-79.84 0v39.92h19.96v-39.92h-19.96Zm-79.84 0v19.96h19.96v-19.96h-19.96Zm-19.96 0v59.88h19.96v-59.88h-19.96Zm499 19.96v19.96h19.96V750.5h-19.96Zm-19.96 0v119.76h19.96V750.5h-19.96Zm-159.68 0v19.96h19.96V750.5h-19.96Zm-159.68 0v19.96h19.96V750.5h-19.96Zm-119.76 0v19.96h19.96V750.5H151.7Zm-79.84 0v19.96h19.96V750.5H71.86Zm878.24 19.96v39.92h19.96v-39.92H950.1Zm-139.72 0v19.96h19.96v-19.96h-19.96Zm-39.92 0v19.96h19.96v-19.96h-19.96Zm-119.76 0v19.96h19.96v-19.96H650.7Zm-79.84 0v19.96h19.96v-19.96h-19.96Zm-19.96 0v19.96h19.96v-19.96H550.9Zm-179.64 0v59.88h19.96v-59.88h-19.96Zm-59.88 0v59.88h19.96v-59.88h-19.96Zm-179.64 0v19.96h19.96v-19.96h-19.96Zm-99.8 0v59.88H51.9v-59.88H31.94Zm938.12 19.96v39.92h19.96v-39.92h-19.96Zm-39.92 0v19.96h19.96v-19.96h-19.96Zm-19.96 0v39.92h19.96v-39.92h-19.96Zm-159.68 0v39.92h19.96v-39.92H750.5Zm-79.84 0v79.84h19.96v-79.84h-19.96Zm-179.64 0v39.92h19.96v-39.92h-19.96Zm-19.96 0v39.92h19.96v-39.92h-19.96Zm-19.96 0v119.76h19.96V790.42H451.1Zm-99.8 0v19.96h19.96v-19.96H351.3Zm-79.84 0v39.92h19.96v-39.92h-19.96Zm-39.92 0v19.96h19.96v-19.96h-19.96Zm-39.92 0v19.96h19.96v-19.96h-19.96Zm-39.92 0v19.96h19.96v-19.96H151.7Zm-79.84 0v19.96h19.96v-19.96H71.86Zm-19.96 0v39.92h19.96v-39.92H51.9Zm838.32 19.96v119.76h19.96V810.38h-19.96Zm-59.88 0v19.96h19.96v-19.96h-19.96Zm-19.96 0v99.8h19.96v-99.8h-19.96Zm-99.8 0v59.88h19.96v-59.88h-19.96Zm-19.96 0v19.96h19.96v-19.96h-19.96Zm-39.92 0v19.96h19.96v-19.96H650.7Zm-19.96 0v19.96h19.96v-19.96h-19.96Zm-59.88 0v39.92h19.96v-39.92h-19.96Zm-59.88 0v19.96h19.96v-19.96h-19.96Zm-119.76 0v39.92h19.96v-39.92h-19.96Zm-179.64 0v39.92h19.96v-39.92h-19.96Zm-79.84 0v19.96h19.96v-19.96h-19.96Zm-119.76 0v19.96h19.96v-19.96H11.98Zm938.12 19.96v19.96h19.96v-19.96H950.1Zm-159.68 0v59.88h19.96v-59.88h-19.96Zm-179.64 0v59.88h19.96v-59.88h-19.96Zm-259.48 0v19.96h19.96v-19.96H351.3Zm-19.96 0v19.96h19.96v-19.96h-19.96Zm-79.84 0v39.92h19.96v-39.92H251.5Zm-19.96 0v19.96h19.96v-19.96h-19.96Zm-39.92 0v19.96h19.96v-19.96h-19.96Zm738.52 19.96v79.84h19.96V850.3h-19.96Zm-79.84 0v19.96h19.96V850.3H850.3Zm-79.84 0v79.84h19.96V850.3h-19.96Zm-39.92 0v19.96h19.96V850.3h-19.96Zm-39.92 0v19.96h19.96V850.3h-19.96Zm-39.92 0v59.88h19.96V850.3H650.7Zm-19.96 0v19.96h19.96V850.3h-19.96Zm-79.84 0v19.96h19.96V850.3H550.9Zm-59.88 0v19.96h19.96V850.3h-19.96Zm-179.64 0v59.88h19.96V850.3h-19.96Zm658.68 19.96v19.96h19.96v-19.96h-19.96Zm-399.2 0v19.96h19.96v-19.96h-19.96Zm-139.72 0v19.96h19.96v-19.96h-19.96Zm-39.92 0v39.92h19.96v-39.92h-19.96Zm-19.96 0v39.92h19.96v-39.92h-19.96Zm-39.92 0v59.88h19.96v-59.88h-19.96Zm-59.88 0v119.76h19.96V870.26h-19.96Zm-99.8 0v59.88h19.96v-59.88h-19.96Zm778.44 19.96v19.96h19.96v-19.96H950.1Zm-39.92 0v19.96h19.96v-19.96h-19.96Zm-39.92 0v19.96h19.96v-19.96h-19.96Zm-19.96 0v19.96h19.96v-19.96H850.3Zm-19.96 0v19.96h19.96v-19.96h-19.96Zm-239.52 0v39.92h19.96v-39.92h-19.96Zm-79.84 0v59.88h19.96v-59.88h-19.96Zm-19.96 0v19.96h19.96v-19.96h-19.96Zm-19.96 0v19.96h19.96v-19.96h-19.96Zm-119.76 0v59.88h19.96v-59.88H351.3Zm-99.8 0v19.96h19.96v-19.96H251.5Zm479.04 19.96v19.96h19.96v-19.96h-19.96Zm-19.96 0v19.96h19.96v-19.96h-19.96Zm-159.68 0v19.96h19.96v-19.96H550.9Zm-139.72 0v19.96h19.96v-19.96h-19.96Zm-199.6 0v39.92h19.96v-39.92h-19.96Zm-19.96 0v19.96h19.96v-19.96h-19.96Zm678.64 19.96v39.92h19.96v-39.92h-19.96Zm-19.96 0v59.88h19.96v-59.88H850.3Zm-39.92 0v19.96h19.96v-19.96h-19.96Zm-179.64 0v59.88h19.96v-59.88h-19.96Zm-19.96 0v19.96h19.96v-19.96h-19.96Zm-39.92 0v19.96h19.96v-19.96h-19.96Zm-119.76 0v59.88h19.96v-59.88H451.1Zm-19.96 0v59.88h19.96v-59.88h-19.96Zm-39.92 0v59.88h19.96v-59.88h-19.96Zm-19.96 0v19.96h19.96v-19.96h-19.96Zm598.8 19.96v39.92h19.96V950.1h-19.96Zm-39.92 0v39.92h19.96V950.1h-19.96Zm-19.96 0v19.96h19.96V950.1h-19.96Zm-79.84 0v39.92h19.96V950.1h-19.96Zm-79.84 0v39.92h19.96V950.1H750.5Zm-99.8 0v39.92h19.96V950.1H650.7Zm-59.88 0v39.92h19.96V950.1h-19.96Zm-99.8 0v19.96h19.96V950.1h-19.96Zm-79.84 0v39.92h19.96V950.1h-19.96Zm-179.64 0v39.92h19.96V950.1h-19.96Zm-59.88 0v39.92h19.96V950.1h-19.96Zm718.56 19.96v19.96h19.96v-19.96h-19.96Zm-79.84 0v19.96h19.96v-19.96h-19.96Zm-19.96 0v19.96h19.96v-19.96h-19.96Zm-19.96 0v19.96h19.96v-19.96h-19.96Zm-79.84 0v19.96h19.96v-19.96h-19.96Zm-19.96 0v19.96h19.96v-19.96h-19.96Zm-59.88 0v19.96h19.96v-19.96h-19.96Zm-39.92 0v19.96h19.96v-19.96h-19.96Zm-39.92 0v19.96h19.96v-19.96h-19.96Zm-19.96 0v19.96h19.96v-19.96h-19.96Zm-139.72 0v19.96h19.96v-19.96h-19.96Zm-19.96 0v19.96h19.96v-19.96H351.3Zm-19.96 0v19.96h19.96v-19.96h-19.96Zm-39.92 0v19.96h19.96v-19.96h-19.96Zm-39.92 0v19.96h19.96v-19.96H251.5Zm-39.92 0v19.96h19.96v-19.96h-19.96Zm-19.96 0v19.96h19.96v-19.96h-19.96Z"/>
        </clipPath>
        <clipPath id="clippath-10">
            <path class="cls-4" d="M11.98 11.98V151.7H151.7V11.98H11.98Zm19.96 19.96h99.8v99.8h-99.8v-99.8ZM91.82 51.9v59.88h19.96V51.9H91.82Zm-19.96 0v59.88h19.96V51.9H71.86Zm-19.96 0v59.88h19.96V51.9H51.9Z"/>
        </clipPath>
        <clipPath id="clippath-13">
            <path class="cls-4" d="M850.3 11.98V151.7h139.72V11.98H850.3Zm19.96 19.96h99.8v99.8h-99.8v-99.8Zm59.88 19.96v59.88h19.96V51.9h-19.96Zm-19.96 0v59.88h19.96V51.9h-19.96Zm-19.96 0v59.88h19.96V51.9h-19.96Z"/>
        </clipPath>
        <clipPath id="clippath-16">
            <path class="cls-4" d="M11.98 850.3v139.72H151.7V850.3H11.98Zm19.96 19.96h99.8v99.8h-99.8v-99.8Zm59.88 19.96v59.88h19.96v-59.88H91.82Zm-19.96 0v59.88h19.96v-59.88H71.86Zm-19.96 0v59.88h19.96v-59.88H51.9Z"/>
        </clipPath>
        <style>
            .cls-2,.cls-4{fill:#e8e8e8}.cls-10,.cls-4,.cls-9{stroke-width:0}.cls-9{fill:#f0f0f0}.cls-10{fill:#797979}
        </style>
    </defs>
    <g style="isolation:isolate">
        <g id="Camada_1" data-name="Camada 1">
            <path class="cls-2" d="M2.99 2.99h1l-1 1v-1zM1 1H0l1-1v1zM810.38 11.98v59.88h19.96V11.98h-19.96Zm-59.88 0v19.96h19.96V11.98H750.5Zm-19.96 0v19.96h19.96V11.98h-19.96Zm-19.96 0V51.9h19.96V11.98h-19.96Zm-19.96 0v19.96h19.96V11.98h-19.96Zm-59.88 0v19.96h19.96V11.98h-19.96Zm-39.92 0v19.96h19.96V11.98h-19.96Zm-39.92 0v19.96h19.96V11.98H550.9Zm-19.96 0v179.64h19.96V11.98h-19.96Zm-59.88 0V51.9h19.96V11.98h-19.96Zm-59.88 0V51.9h19.96V11.98h-19.96Zm-19.96 0v59.88h19.96V11.98h-19.96Zm-39.92 0V51.9h19.96V11.98H351.3Zm-19.96 0v159.68h19.96V11.98h-19.96Zm-19.96 0v19.96h19.96V11.98h-19.96Zm-19.96 0v59.88h19.96V11.98h-19.96Zm-19.96 0v79.84h19.96V11.98h-19.96Zm-39.92 0V51.9h19.96V11.98h-19.96Zm-39.92 0V51.9h19.96V11.98h-19.96Zm598.8 19.96v59.88h19.96V31.94h-19.96Zm-19.96 0V51.9h19.96V31.94h-19.96Zm-99.8 0v99.8h19.96v-99.8h-19.96Zm-19.96 0V51.9h19.96V31.94H650.7Zm-39.92 0v59.88h19.96V31.94h-19.96Zm-159.68 0v179.64h19.96V31.94H451.1ZM750.5 51.9v59.88h19.96V51.9H750.5Zm-19.96 0v19.96h19.96V51.9h-19.96Zm-39.92 0v59.88h19.96V51.9h-19.96Zm-119.76 0v39.92h19.96V51.9h-19.96Zm-59.88 0v19.96h19.96V51.9h-19.96Zm-19.96 0v59.88h19.96V51.9h-19.96Zm-179.64 0v19.96h19.96V51.9h-19.96Zm-59.88 0v39.92h19.96V51.9H251.5Zm459.08 19.96v59.88h19.96V71.86h-19.96Zm-59.88 0v99.8h19.96v-99.8H650.7Zm-19.96 0v19.96h19.96V71.86h-19.96Zm-39.92 0v19.96h19.96V71.86h-19.96Zm-39.92 0v19.96h19.96V71.86H550.9Zm-119.76 0v19.96h19.96V71.86h-19.96Zm-59.88 0v39.92h19.96V71.86h-19.96Zm-139.72 0v39.92h19.96V71.86h-19.96Zm-19.96 0v39.92h19.96V71.86h-19.96Zm-19.96 0v19.96h19.96V71.86h-19.96Zm-19.96 0v19.96h19.96V71.86h-19.96Zm339.32 19.96v19.96h19.96V91.82h-19.96Zm-39.92 0v19.96h19.96V91.82h-19.96Zm-79.84 0v39.92h19.96V91.82h-19.96Zm-39.92 0v19.96h19.96V91.82H351.3Zm-59.88 0v19.96h19.96V91.82h-19.96Zm479.04 19.96v59.88h19.96v-59.88h-19.96Zm-139.72 0v19.96h19.96v-19.96h-19.96Zm-19.96 0v39.92h19.96v-39.92h-19.96Zm-19.96 0v19.96h19.96v-19.96h-19.96Zm-39.92 0v19.96h19.96v-19.96H550.9Zm-119.76 0v19.96h19.96v-19.96h-19.96Zm-19.96 0v59.88h19.96v-59.88h-19.96Zm-139.72 0v19.96h19.96v-19.96h-19.96Zm538.92 19.96v59.88h19.96v-59.88h-19.96Zm-79.84 0v19.96h19.96v-19.96h-19.96Zm-39.92 0v19.96h19.96v-19.96h-19.96Zm-119.76 0v19.96h19.96v-19.96h-19.96Zm-79.84 0v19.96h19.96v-19.96h-19.96Zm-119.76 0v39.92h19.96v-39.92h-19.96Zm-79.84 0v19.96h19.96v-19.96h-19.96Zm-39.92 0v59.88h19.96v-59.88H251.5Zm-39.92 0v19.96h19.96v-19.96h-19.96Zm-39.92 0v19.96h19.96v-19.96h-19.96Zm499 19.96v39.92h19.96V151.7h-19.96Zm-39.92 0v19.96h19.96V151.7h-19.96Zm-79.84 0v19.96h19.96V151.7H550.9Zm-119.76 0v19.96h19.96V151.7h-19.96Zm-39.92 0v19.96h19.96V151.7h-19.96Zm-39.92 0v39.92h19.96V151.7H351.3Zm-79.84 0v19.96h19.96V151.7h-19.96Zm638.72 19.96v59.88h19.96v-59.88h-19.96Zm-79.84 0v59.88h19.96v-59.88h-19.96Zm-39.92 0v19.96h19.96v-19.96h-19.96Zm-59.88 0v19.96h19.96v-19.96h-19.96Zm-39.92 0v19.96h19.96v-19.96h-19.96Zm-79.84 0v39.92h19.96v-39.92h-19.96Zm-39.92 0v19.96h19.96v-19.96h-19.96Zm-59.88 0v19.96h19.96v-19.96h-19.96Zm-19.96 0v19.96h19.96v-19.96h-19.96Zm-19.96 0v79.84h19.96v-79.84h-19.96Zm-239.52 0v19.96h19.96v-19.96h-19.96Zm-99.8 0v19.96h19.96v-19.96h-19.96Zm-19.96 0v19.96h19.96v-19.96h-19.96Zm-19.96 0v79.84h19.96v-79.84H91.82Zm-19.96 0v59.88h19.96v-59.88H71.86Zm-39.92 0v19.96H51.9v-19.96H31.94Zm-19.96 0v39.92h19.96v-39.92H11.98Zm958.08 19.96v19.96h19.96v-19.96h-19.96Zm-19.96 0v19.96h19.96v-19.96H950.1Zm-19.96 0v19.96h19.96v-19.96h-19.96Zm-59.88 0v39.92h19.96v-39.92h-19.96Zm-159.68 0v39.92h19.96v-39.92h-19.96Zm-379.24 0v19.96h19.96v-19.96h-19.96Zm-39.92 0v59.88h19.96v-59.88h-19.96Zm-19.96 0v99.8h19.96v-99.8h-19.96Zm-59.88 0v19.96h19.96v-19.96h-19.96Zm-19.96 0v19.96h19.96v-19.96h-19.96Zm-19.96 0v39.92h19.96v-39.92h-19.96Zm-19.96 0v39.92h19.96v-39.92H151.7Zm-99.8 0v19.96h19.96v-19.96H51.9Zm798.4 19.96v19.96h19.96v-19.96H850.3Zm-39.92 0v39.92h19.96v-39.92h-19.96Zm-59.88 0v19.96h19.96v-19.96H750.5Zm-99.8 0v39.92h19.96v-39.92H650.7Zm-79.84 0v19.96h19.96v-19.96h-19.96Zm-19.96 0v19.96h19.96v-19.96H550.9Zm-59.88 0v79.84h19.96v-79.84h-19.96Zm-99.8 0v59.88h19.96v-59.88h-19.96Zm-19.96 0v19.96h19.96v-19.96h-19.96Zm-19.96 0v79.84h19.96v-79.84H351.3Zm-219.56 0v19.96h19.96v-19.96h-19.96Zm-99.8 0v39.92H51.9v-39.92H31.94Zm898.2 19.96v39.92h19.96v-39.92h-19.96Zm-39.92 0v59.88h19.96v-59.88h-19.96Zm-159.68 0v59.88h19.96v-59.88h-19.96Zm-39.92 0v19.96h19.96v-19.96h-19.96Zm-179.64 0v19.96h19.96v-19.96h-19.96Zm-79.84 0v19.96h19.96v-19.96h-19.96Zm-19.96 0v19.96h19.96v-19.96h-19.96Zm-159.68 0v39.92h19.96v-39.92H251.5Zm-199.6 0v19.96h19.96v-19.96H51.9Zm898.2 19.96v19.96h19.96V251.5H950.1Zm-99.8 0v39.92h19.96V251.5H850.3Zm-59.88 0v19.96h19.96V251.5h-19.96Zm-39.92 0v139.72h19.96V251.5H750.5Zm-39.92 0v19.96h19.96V251.5h-19.96Zm-79.84 0v79.84h19.96V251.5h-19.96Zm-19.96 0v19.96h19.96V251.5h-19.96Zm-79.84 0v99.8h19.96v-99.8h-19.96Zm-199.6 0v19.96h19.96V251.5h-19.96Zm-19.96 0v19.96h19.96V251.5h-19.96Zm-79.84 0v39.92h19.96V251.5h-19.96Zm-19.96 0v19.96h19.96V251.5h-19.96Zm-19.96 0v19.96h19.96V251.5h-19.96Zm-19.96 0v119.76h19.96V251.5h-19.96Zm-19.96 0v219.56h19.96V251.5H151.7Zm-19.96 0v19.96h19.96V251.5h-19.96Zm-19.96 0v19.96h19.96V251.5h-19.96Zm-99.8 0v39.92h19.96V251.5H11.98Zm898.2 19.96v19.96h19.96v-19.96h-19.96Zm-39.92 0v19.96h19.96v-19.96h-19.96Zm-39.92 0v19.96h19.96v-19.96h-19.96Zm-159.68 0v19.96h19.96v-19.96h-19.96Zm-19.96 0v19.96h19.96v-19.96H650.7Zm-79.84 0v39.92h19.96v-39.92h-19.96Zm-19.96 0v39.92h19.96v-39.92H550.9Zm-39.92 0v39.92h19.96v-39.92h-19.96Zm-59.88 0v19.96h19.96v-19.96H451.1Zm-39.92 0v39.92h19.96v-39.92h-19.96Zm-39.92 0v39.92h19.96v-39.92h-19.96Zm-79.84 0v19.96h19.96v-19.96h-19.96Zm-199.6 0v19.96h19.96v-19.96H91.82Zm-39.92 0v19.96h19.96v-19.96H51.9Zm-19.96 0v19.96H51.9v-19.96H31.94Zm938.12 19.96v19.96h19.96v-19.96h-19.96Zm-199.6 0v39.92h19.96v-39.92h-19.96Zm-79.84 0v19.96h19.96v-19.96h-19.96Zm-99.8 0v39.92h19.96v-39.92h-19.96Zm-159.68 0v39.92h19.96v-39.92h-19.96Zm-39.92 0v19.96h19.96v-19.96h-19.96Zm-79.84 0v19.96h19.96v-19.96h-19.96Zm-59.88 0v19.96h19.96v-19.96H251.5Zm-59.88 0v19.96h19.96v-19.96h-19.96Zm-59.88 0v19.96h19.96v-19.96h-19.96Zm798.4 19.96v19.96h19.96v-19.96h-19.96Zm-19.96 0v99.8h19.96v-99.8h-19.96Zm-19.96 0v19.96h19.96v-19.96h-19.96Zm-79.84 0v39.92h19.96v-39.92h-19.96Zm-99.8 0v19.96h19.96v-19.96h-19.96Zm-39.92 0v39.92h19.96v-39.92h-19.96Zm-19.96 0v59.88h19.96v-59.88H650.7Zm-39.92 0v19.96h19.96v-19.96h-19.96Zm-119.76 0v39.92h19.96v-39.92h-19.96Zm-19.96 0v39.92h19.96v-39.92h-19.96Zm-139.72 0v59.88h19.96v-59.88h-19.96Zm-59.88 0v19.96h19.96v-19.96h-19.96Zm-179.64 0v19.96h19.96v-19.96H91.82Zm-39.92 0v19.96h19.96v-19.96H51.9Zm918.16 19.96v19.96h19.96v-19.96h-19.96Zm-19.96 0v19.96h19.96v-19.96H950.1Zm-79.84 0v19.96h19.96v-19.96h-19.96Zm-79.84 0v19.96h19.96v-19.96h-19.96Zm-59.88 0v39.92h19.96v-39.92h-19.96Zm-39.92 0v19.96h19.96v-19.96h-19.96Zm-119.76 0v19.96h19.96v-19.96h-19.96Zm-19.96 0v19.96h19.96v-19.96H550.9Zm-179.64 0v19.96h19.96v-19.96h-19.96Zm-19.96 0v19.96h19.96v-19.96H351.3Zm-39.92 0v59.88h19.96v-59.88h-19.96Zm-79.84 0v19.96h19.96v-19.96h-19.96Zm-19.96 0v19.96h19.96v-19.96h-19.96Zm-19.96 0v19.96h19.96v-19.96h-19.96Zm-59.88 0v19.96h19.96v-19.96h-19.96Zm-19.96 0v19.96h19.96v-19.96h-19.96Zm-39.92 0v19.96h19.96v-19.96H71.86Zm-39.92 0v99.8H51.9v-99.8H31.94Zm898.2 19.96v19.96h19.96V351.3h-19.96Zm-79.84 0v19.96h19.96V351.3H850.3Zm-578.84 0v19.96h19.96V351.3h-19.96Zm-19.96 0v19.96h19.96V351.3H251.5Zm-159.68 0v19.96h19.96V351.3H91.82Zm-79.84 0v39.92h19.96V351.3H11.98Zm958.08 19.96v19.96h19.96v-19.96h-19.96Zm-99.8 0v19.96h19.96v-19.96h-19.96Zm-159.68 0v19.96h19.96v-19.96h-19.96Zm-19.96 0v19.96h19.96v-19.96h-19.96Zm-459.08 0v19.96h19.96v-19.96h-19.96Zm-99.8 0v19.96h19.96v-19.96h-19.96Zm-19.96 0v59.88h19.96v-59.88h-19.96Zm-39.92 0v39.92h19.96v-39.92H71.86Zm818.36 19.96V550.9h19.96V391.22h-19.96Zm-59.88 0v19.96h19.96v-19.96h-19.96Zm-99.8 0v19.96h19.96v-19.96h-19.96Zm-79.84 0v19.96h19.96v-19.96H650.7Zm-379.24 0v19.96h19.96v-19.96h-19.96Zm-19.96 0v19.96h19.96v-19.96H251.5Zm-39.92 0v19.96h19.96v-19.96h-19.96Zm-19.96 0v19.96h19.96v-19.96h-19.96Zm-19.96 0v39.92h19.96v-39.92h-19.96Zm-79.84 0v19.96h19.96v-19.96H91.82Zm838.32 19.96v19.96h19.96v-19.96h-19.96Zm-59.88 0v59.88h19.96v-59.88h-19.96Zm-59.88 0v19.96h19.96v-19.96h-19.96Zm-19.96 0v19.96h19.96v-19.96h-19.96Zm-19.96 0v39.92h19.96v-39.92h-19.96Zm-19.96 0v19.96h19.96v-19.96H750.5Zm-39.92 0v19.96h19.96v-19.96h-19.96Zm-19.96 0v19.96h19.96v-19.96h-19.96Zm-379.24 0v39.92h19.96v-39.92h-19.96Zm-79.84 0v59.88h19.96v-59.88h-19.96Zm-99.8 0v19.96h19.96v-19.96h-19.96Zm-119.76 0v39.92h19.96v-39.92H11.98Zm898.2 19.96v19.96h19.96v-19.96h-19.96Zm-59.88 0v39.92h19.96v-39.92H850.3Zm-179.64 0v19.96h19.96v-19.96h-19.96Zm-379.24 0v19.96h19.96v-19.96h-19.96Zm-219.56 0v19.96h19.96v-19.96H71.86ZM950.1 451.1v19.96h19.96V451.1H950.1Zm-119.76 0v19.96h19.96V451.1h-19.96Zm-19.96 0v159.68h19.96V451.1h-19.96Zm-19.96 0v19.96h19.96V451.1h-19.96Zm-39.92 0v19.96h19.96V451.1H750.5Zm-99.8 0v39.92h19.96V451.1H650.7Zm-379.24 0v39.92h19.96V451.1h-19.96Zm-99.8 0v99.8h19.96v-99.8h-19.96Zm-39.92 0v19.96h19.96V451.1h-19.96Zm-19.96 0v19.96h19.96V451.1h-19.96Zm-19.96 0v99.8h19.96v-99.8H91.82Zm638.72 19.96v39.92h19.96v-39.92h-19.96Zm-39.92 0v19.96h19.96v-19.96h-19.96Zm-379.24 0v79.84h19.96v-79.84h-19.96Zm-19.96 0v119.76h19.96V471.06h-19.96Zm-39.92 0v19.96h19.96v-19.96H251.5Zm-59.88 0v39.92h19.96v-39.92h-19.96Zm-119.76 0v19.96h19.96v-19.96H71.86Zm-19.96 0v39.92h19.96v-39.92H51.9Zm-19.96 0v79.84H51.9v-79.84H31.94Zm-19.96 0v19.96h19.96v-19.96H11.98Zm938.12 19.96v19.96h19.96v-19.96H950.1Zm-39.92 0v19.96h19.96v-19.96h-19.96Zm-59.88 0v19.96h19.96v-19.96H850.3Zm-79.84 0V650.7h19.96V491.02h-19.96Zm-19.96 0v19.96h19.96v-19.96H750.5Zm-39.92 0v19.96h19.96v-19.96h-19.96Zm-379.24 0v19.96h19.96v-19.96h-19.96Zm-199.6 0v19.96h19.96v-19.96h-19.96Zm658.68 19.96v19.96h19.96v-19.96h-19.96Zm-99.8 0v39.92h19.96v-39.92h-19.96Zm-19.96 0v19.96h19.96v-19.96h-19.96Zm-19.96 0v39.92h19.96v-39.92H650.7Zm-379.24 0v79.84h19.96v-79.84h-19.96Zm-199.6 0v59.88h19.96v-59.88H71.86Zm-59.88 0v19.96h19.96v-19.96H11.98Zm938.12 19.96v19.96h19.96v-19.96H950.1Zm-39.92 0v59.88h19.96v-59.88h-19.96Zm-39.92 0v39.92h19.96v-39.92h-19.96Zm-19.96 0v19.96h19.96v-19.96H850.3Zm-19.96 0v39.92h19.96v-39.92h-19.96Zm-79.84 0v39.92h19.96v-39.92H750.5Zm-39.92 0v59.88h19.96v-59.88h-19.96Zm-379.24 0v19.96h19.96v-19.96h-19.96Zm-79.84 0v59.88h19.96v-59.88H251.5Zm-39.92 0v19.96h19.96v-19.96h-19.96Zm-19.96 0v19.96h19.96v-19.96h-19.96Zm-39.92 0v19.96h19.96v-19.96H151.7Zm-19.96 0v19.96h19.96v-19.96h-19.96Zm-19.96 0v19.96h19.96v-19.96h-19.96Zm858.28 19.96v19.96h19.96V550.9h-19.96Zm-179.64 0v19.96h19.96V550.9h-19.96Zm-119.76 0v139.72h19.96V550.9h-19.96Zm-618.76 0v19.96h19.96V550.9H51.9Zm838.32 19.96v39.92h19.96v-39.92h-19.96Zm-159.68 0v59.88h19.96v-59.88h-19.96Zm-399.2 0v39.92h19.96v-39.92h-19.96Zm-99.8 0v79.84h19.96v-79.84h-19.96Zm-39.92 0v39.92h19.96v-39.92h-19.96Zm-19.96 0v19.96h19.96v-19.96h-19.96Zm-39.92 0v19.96h19.96v-19.96h-19.96Zm-99.8 0v19.96H51.9v-19.96H31.94Zm-19.96 0v39.92h19.96v-39.92H11.98Zm778.44 19.96v39.92h19.96v-39.92h-19.96Zm-39.92 0v59.88h19.96v-59.88H750.5Zm-538.92 0v59.88h19.96v-59.88h-19.96Zm-119.76 0v39.92h19.96v-39.92H91.82Zm-19.96 0v19.96h19.96v-19.96H71.86Zm-19.96 0v39.92h19.96v-39.92H51.9Zm898.2 19.96v39.92h19.96v-39.92H950.1Zm-19.96 0v19.96h19.96v-19.96h-19.96Zm-19.96 0v19.96h19.96v-19.96h-19.96Zm-59.88 0v19.96h19.96v-19.96H850.3Zm-139.72 0v19.96h19.96v-19.96h-19.96Zm-399.2 0v19.96h19.96v-19.96h-19.96Zm-59.88 0v19.96h19.96v-19.96H251.5Zm-79.84 0v39.92h19.96v-39.92h-19.96Zm-39.92 0v19.96h19.96v-19.96h-19.96Zm-19.96 0v39.92h19.96v-39.92h-19.96Zm-79.84 0v19.96H51.9v-19.96H31.94Zm938.12 19.96v39.92h19.96v-39.92h-19.96Zm-99.8 0v59.88h19.96v-59.88h-19.96Zm-59.88 0v59.88h19.96v-59.88h-19.96Zm-159.68 0v39.92h19.96v-39.92H650.7Zm-359.28 0v39.92h19.96v-39.92h-19.96Zm-19.96 0v39.92h19.96v-39.92h-19.96Zm-199.6 0v59.88h19.96v-59.88H71.86Zm-59.88 0v39.92h19.96v-39.92H11.98ZM850.3 650.7v179.64h19.96V650.7H850.3Zm-19.96 0v39.92h19.96V650.7h-19.96Zm-39.92 0v39.92h19.96V650.7h-19.96Zm-59.88 0v39.92h19.96V650.7h-19.96Zm-139.72 0v39.92h19.96V650.7h-19.96Zm-19.96 0v99.8h19.96v-99.8h-19.96Zm-19.96 0v39.92h19.96V650.7H550.9Zm-59.88 0v19.96h19.96V650.7h-19.96Zm-19.96 0v39.92h19.96V650.7h-19.96Zm-39.92 0v19.96h19.96V650.7h-19.96Zm-19.96 0v19.96h19.96V650.7h-19.96Zm-19.96 0v19.96h19.96V650.7h-19.96Zm-59.88 0v19.96h19.96V650.7h-19.96Zm-19.96 0v19.96h19.96V650.7h-19.96Zm-59.88 0v19.96h19.96V650.7H251.5Zm-59.88 0v39.92h19.96V650.7h-19.96Zm-59.88 0v19.96h19.96V650.7h-19.96Zm798.4 19.96v99.8h19.96v-99.8h-19.96Zm-39.92 0v19.96h19.96v-19.96h-19.96Zm-179.64 0v19.96h19.96v-19.96h-19.96Zm-19.96 0v59.88h19.96v-59.88h-19.96Zm-159.68 0v19.96h19.96v-19.96h-19.96Zm-19.96 0v39.92h19.96v-39.92h-19.96Zm-279.44 0v19.96h19.96v-19.96h-19.96Zm-19.96 0v39.92h19.96v-39.92h-19.96Zm-99.8 0v39.92h19.96v-39.92h-19.96Zm-19.96 0v19.96h19.96v-19.96H91.82Zm-39.92 0v59.88h19.96v-59.88H51.9Zm698.6 19.96v19.96h19.96v-19.96H750.5Zm-99.8 0v19.96h19.96v-19.96H650.7Zm-19.96 0v39.92h19.96v-39.92h-19.96Zm-139.72 0v19.96h19.96v-19.96h-19.96Zm-39.92 0v79.84h19.96v-79.84H451.1Zm-79.84 0v19.96h19.96v-19.96h-19.96Zm-19.96 0v19.96h19.96v-19.96H351.3Zm-19.96 0v79.84h19.96v-79.84h-19.96Zm-19.96 0v59.88h19.96v-59.88h-19.96Zm-39.92 0v19.96h19.96v-19.96h-19.96Zm-119.76 0v19.96h19.96v-19.96H151.7Zm-19.96 0v19.96h19.96v-19.96h-19.96Zm-119.76 0v59.88h19.96v-59.88H11.98Zm938.12 19.96v39.92h19.96v-39.92H950.1Zm-39.92 0v19.96h19.96v-19.96h-19.96Zm-19.96 0v79.84h19.96v-79.84h-19.96Zm-159.68 0v59.88h19.96v-59.88h-19.96Zm-19.96 0v79.84h19.96v-79.84h-19.96Zm-39.92 0v59.88h19.96v-59.88h-19.96Zm-59.88 0v19.96h19.96v-19.96h-19.96Zm-59.88 0v39.92h19.96v-39.92H550.9Zm-19.96 0V950.1h19.96V710.58h-19.96Zm-59.88 0v39.92h19.96v-39.92h-19.96Zm-79.84 0v79.84h19.96v-79.84h-19.96Zm-139.72 0v59.88h19.96v-59.88H251.5Zm-19.96 0v39.92h19.96v-39.92h-19.96Zm-59.88 0v39.92h19.96v-39.92h-19.96Zm-79.84 0v39.92h19.96v-39.92H91.82Zm-59.88 0v19.96H51.9v-19.96H31.94Zm938.12 19.96v39.92h19.96v-39.92h-19.96Zm-99.8 0v99.8h19.96v-99.8h-19.96Zm-39.92 0v59.88h19.96v-59.88h-19.96Zm-19.96 0v19.96h19.96v-19.96h-19.96Zm-19.96 0v39.92h19.96v-39.92h-19.96Zm-39.92 0v39.92h19.96v-39.92H750.5Zm-239.52 0v19.96h19.96v-19.96h-19.96Zm-19.96 0v39.92h19.96v-39.92h-19.96Zm-79.84 0v159.68h19.96V730.54h-19.96Zm-119.76 0v59.88h19.96v-59.88h-19.96Zm-79.84 0v39.92h19.96v-39.92h-19.96Zm-79.84 0v19.96h19.96v-19.96h-19.96Zm-19.96 0v59.88h19.96v-59.88h-19.96Zm499 19.96v19.96h19.96V750.5h-19.96Zm-19.96 0v119.76h19.96V750.5h-19.96Zm-159.68 0v19.96h19.96V750.5h-19.96Zm-159.68 0v19.96h19.96V750.5h-19.96Zm-119.76 0v19.96h19.96V750.5H151.7Zm-79.84 0v19.96h19.96V750.5H71.86Zm878.24 19.96v39.92h19.96v-39.92H950.1Zm-139.72 0v19.96h19.96v-19.96h-19.96Zm-39.92 0v19.96h19.96v-19.96h-19.96Zm-119.76 0v19.96h19.96v-19.96H650.7Zm-79.84 0v19.96h19.96v-19.96h-19.96Zm-19.96 0v19.96h19.96v-19.96H550.9Zm-179.64 0v59.88h19.96v-59.88h-19.96Zm-59.88 0v59.88h19.96v-59.88h-19.96Zm-179.64 0v19.96h19.96v-19.96h-19.96Zm-99.8 0v59.88H51.9v-59.88H31.94Zm938.12 19.96v39.92h19.96v-39.92h-19.96Zm-39.92 0v19.96h19.96v-19.96h-19.96Zm-19.96 0v39.92h19.96v-39.92h-19.96Zm-159.68 0v39.92h19.96v-39.92H750.5Zm-79.84 0v79.84h19.96v-79.84h-19.96Zm-179.64 0v39.92h19.96v-39.92h-19.96Zm-19.96 0v39.92h19.96v-39.92h-19.96Zm-19.96 0v119.76h19.96V790.42H451.1Zm-99.8 0v19.96h19.96v-19.96H351.3Zm-79.84 0v39.92h19.96v-39.92h-19.96Zm-39.92 0v19.96h19.96v-19.96h-19.96Zm-39.92 0v19.96h19.96v-19.96h-19.96Zm-39.92 0v19.96h19.96v-19.96H151.7Zm-79.84 0v19.96h19.96v-19.96H71.86Zm-19.96 0v39.92h19.96v-39.92H51.9Zm838.32 19.96v119.76h19.96V810.38h-19.96Zm-59.88 0v19.96h19.96v-19.96h-19.96Zm-19.96 0v99.8h19.96v-99.8h-19.96Zm-99.8 0v59.88h19.96v-59.88h-19.96Zm-19.96 0v19.96h19.96v-19.96h-19.96Zm-39.92 0v19.96h19.96v-19.96H650.7Zm-19.96 0v19.96h19.96v-19.96h-19.96Zm-59.88 0v39.92h19.96v-39.92h-19.96Zm-59.88 0v19.96h19.96v-19.96h-19.96Zm-119.76 0v39.92h19.96v-39.92h-19.96Zm-179.64 0v39.92h19.96v-39.92h-19.96Zm-79.84 0v19.96h19.96v-19.96h-19.96Zm-119.76 0v19.96h19.96v-19.96H11.98Zm938.12 19.96v19.96h19.96v-19.96H950.1Zm-159.68 0v59.88h19.96v-59.88h-19.96Zm-179.64 0v59.88h19.96v-59.88h-19.96Zm-259.48 0v19.96h19.96v-19.96H351.3Zm-19.96 0v19.96h19.96v-19.96h-19.96Zm-79.84 0v39.92h19.96v-39.92H251.5Zm-19.96 0v19.96h19.96v-19.96h-19.96Zm-39.92 0v19.96h19.96v-19.96h-19.96Zm738.52 19.96v79.84h19.96V850.3h-19.96Zm-79.84 0v19.96h19.96V850.3H850.3Zm-79.84 0v79.84h19.96V850.3h-19.96Zm-39.92 0v19.96h19.96V850.3h-19.96Zm-39.92 0v19.96h19.96V850.3h-19.96Zm-39.92 0v59.88h19.96V850.3H650.7Zm-19.96 0v19.96h19.96V850.3h-19.96Zm-79.84 0v19.96h19.96V850.3H550.9Zm-59.88 0v19.96h19.96V850.3h-19.96Zm-179.64 0v59.88h19.96V850.3h-19.96Zm658.68 19.96v19.96h19.96v-19.96h-19.96Zm-399.2 0v19.96h19.96v-19.96h-19.96Zm-139.72 0v19.96h19.96v-19.96h-19.96Zm-39.92 0v39.92h19.96v-39.92h-19.96Zm-19.96 0v39.92h19.96v-39.92h-19.96Zm-39.92 0v59.88h19.96v-59.88h-19.96Zm-59.88 0v119.76h19.96V870.26h-19.96Zm-99.8 0v59.88h19.96v-59.88h-19.96Zm778.44 19.96v19.96h19.96v-19.96H950.1Zm-39.92 0v19.96h19.96v-19.96h-19.96Zm-39.92 0v19.96h19.96v-19.96h-19.96Zm-19.96 0v19.96h19.96v-19.96H850.3Zm-19.96 0v19.96h19.96v-19.96h-19.96Zm-239.52 0v39.92h19.96v-39.92h-19.96Zm-79.84 0v59.88h19.96v-59.88h-19.96Zm-19.96 0v19.96h19.96v-19.96h-19.96Zm-19.96 0v19.96h19.96v-19.96h-19.96Zm-119.76 0v59.88h19.96v-59.88H351.3Zm-99.8 0v19.96h19.96v-19.96H251.5Zm479.04 19.96v19.96h19.96v-19.96h-19.96Zm-19.96 0v19.96h19.96v-19.96h-19.96Zm-159.68 0v19.96h19.96v-19.96H550.9Zm-139.72 0v19.96h19.96v-19.96h-19.96Zm-199.6 0v39.92h19.96v-39.92h-19.96Zm-19.96 0v19.96h19.96v-19.96h-19.96Zm678.64 19.96v39.92h19.96v-39.92h-19.96Zm-19.96 0v59.88h19.96v-59.88H850.3Zm-39.92 0v19.96h19.96v-19.96h-19.96Zm-179.64 0v59.88h19.96v-59.88h-19.96Zm-19.96 0v19.96h19.96v-19.96h-19.96Zm-39.92 0v19.96h19.96v-19.96h-19.96Zm-119.76 0v59.88h19.96v-59.88H451.1Zm-19.96 0v59.88h19.96v-59.88h-19.96Zm-39.92 0v59.88h19.96v-59.88h-19.96Zm-19.96 0v19.96h19.96v-19.96h-19.96Zm598.8 19.96v39.92h19.96V950.1h-19.96Zm-39.92 0v39.92h19.96V950.1h-19.96Zm-19.96 0v19.96h19.96V950.1h-19.96Zm-79.84 0v39.92h19.96V950.1h-19.96Zm-79.84 0v39.92h19.96V950.1H750.5Zm-99.8 0v39.92h19.96V950.1H650.7Zm-59.88 0v39.92h19.96V950.1h-19.96Zm-99.8 0v19.96h19.96V950.1h-19.96Zm-79.84 0v39.92h19.96V950.1h-19.96Zm-179.64 0v39.92h19.96V950.1h-19.96Zm-59.88 0v39.92h19.96V950.1h-19.96Zm718.56 19.96v19.96h19.96v-19.96h-19.96Zm-79.84 0v19.96h19.96v-19.96h-19.96Zm-19.96 0v19.96h19.96v-19.96h-19.96Zm-19.96 0v19.96h19.96v-19.96h-19.96Zm-79.84 0v19.96h19.96v-19.96h-19.96Zm-19.96 0v19.96h19.96v-19.96h-19.96Zm-59.88 0v19.96h19.96v-19.96h-19.96Zm-39.92 0v19.96h19.96v-19.96h-19.96Zm-39.92 0v19.96h19.96v-19.96h-19.96Zm-19.96 0v19.96h19.96v-19.96h-19.96Zm-139.72 0v19.96h19.96v-19.96h-19.96Zm-19.96 0v19.96h19.96v-19.96H351.3Zm-19.96 0v19.96h19.96v-19.96h-19.96Zm-39.92 0v19.96h19.96v-19.96h-19.96Zm-39.92 0v19.96h19.96v-19.96H251.5Zm-39.92 0v19.96h19.96v-19.96h-19.96Zm-19.96 0v19.96h19.96v-19.96h-19.96Z"/>
            <path class="cls-4" d="M2 2h998v998H2z" style="clip-path:url(#clippath-7)"/>
            <path class="cls-2" d="M11.98 11.98V151.7H151.7V11.98H11.98Zm19.96 19.96h99.8v99.8h-99.8v-99.8ZM91.82 51.9v59.88h19.96V51.9H91.82Zm-19.96 0v59.88h19.96V51.9H71.86Zm-19.96 0v59.88h19.96V51.9H51.9Z"/>
            <path class="cls-4" d="M11.98 11.98H151.7V151.7H11.98z" style="clip-path:url(#clippath-10)"/>
            <path class="cls-2" d="M850.3 11.98V151.7h139.72V11.98H850.3Zm19.96 19.96h99.8v99.8h-99.8v-99.8Zm59.88 19.96v59.88h19.96V51.9h-19.96Zm-19.96 0v59.88h19.96V51.9h-19.96Zm-19.96 0v59.88h19.96V51.9h-19.96Z"/>
            <path class="cls-4" d="M850.3 11.98h139.72V151.7H850.3z" style="clip-path:url(#clippath-13)"/>
            <path class="cls-2" d="M11.98 850.3v139.72H151.7V850.3H11.98Zm19.96 19.96h99.8v99.8h-99.8v-99.8Zm59.88 19.96v59.88h19.96v-59.88H91.82Zm-19.96 0v59.88h19.96v-59.88H71.86Zm-19.96 0v59.88h19.96v-59.88H51.9Z"/>
            <path class="cls-4" d="M11.98 850.3H151.7v139.72H11.98z" style="clip-path:url(#clippath-16)"/>
            <rect class="cls-9" x="453.75" y="421.16" width="16.69" height="119.26" rx=".58" ry=".58"/>
            <rect class="cls-10" x="420.08" y="421.16" width="16.69" height="119.26" rx=".56" ry=".56"/>
            <path class="cls-9" d="m516.08 531.9 4.61 7.99a.35.35 0 0 1-.31.53h-18.85c-.13 0-.24-.07-.31-.18l-4.81-8.34-4.92-8.52-4.92-8.52-4.92-8.51-4.92-8.52-4.92-8.51-4.82-8.34a.382.382 0 0 1 0-.36l4.81-8.34 4.92-8.52 4.92-8.51 4.92-8.52 4.92-8.52 4.92-8.51 4.81-8.34c.06-.11.18-.18.31-.18h18.85c.27 0 .45.3.31.53l-4.61 7.99-4.92 8.51-4.92 8.52-4.92 8.52-4.92 8.51-4.92 8.52-4.81 8.34c-.06.11-.06.25 0 .36l4.82 8.34 4.92 8.51 4.92 8.52 4.92 8.51 4.92 8.52 4.92 8.52Z"/>
            <path class="cls-10" d="m587.17 523.38-4.92-8.52-4.92-8.51-4.92-8.52-4.92-8.51-4.12-7.13c-.5-.86-.5-1.92 0-2.78l4.11-7.12 4.92-8.52 4.92-8.51 4.92-8.52 4.92-8.52 4.92-8.51 2.51-4.35c1.07-1.85-.27-4.17-2.41-4.17h-52.6c-.99 0-1.91.53-2.41 1.39l-4.11 7.13-4.92 8.51-4.92 8.52-4.92 8.52-4.92 8.51-4.92 8.52-4.11 7.12c-.5.86-.5 1.92 0 2.78l4.12 7.13 4.92 8.51 4.92 8.52 4.92 8.51 4.92 8.52 4.92 8.52 4.11 7.13c.5.86 1.41 1.39 2.41 1.39h52.6c2.14 0 3.48-2.32 2.41-4.17l-2.51-4.35-4.92-8.52Zm-54.21-51.11c-2.14 0-3.48-2.32-2.41-4.17l2.51-4.35 4.92-8.51 4.92-8.52 4.12-7.13a2.78 2.78 0 0 1 2.41-1.39h13.25c2.14 0 3.48 2.32 2.41 4.17l-2.51 4.35-4.92 8.52-4.92 8.51-4.12 7.13a2.78 2.78 0 0 1-2.41 1.39h-13.25Zm16.47 51.11c-.99 0-1.91-.53-2.41-1.39l-4.12-7.13-4.92-8.51-4.92-8.52-2.51-4.34c-1.07-1.85.27-4.17 2.41-4.17h13.25c.99 0 1.91.53 2.41 1.39l4.11 7.12 4.92 8.52 4.92 8.51 2.51 4.35c1.07 1.85-.27 4.17-2.41 4.17h-13.25Z"/>
            <g style="mix-blend-mode:hard-light">
                <path style="fill:#686868;stroke-width:0" d="m486.57 480.79 7.96 13.42h-19.89l-7.74-13.42h19.67z"/>
                <path style="fill:#606060;stroke-width:0" d="m494.32 467.37-7.75 13.42H466.9l7.74-13.42h19.68z"/>
            </g>
            <text transform="translate(414.08 587.56)" style="font-family:MartianMono-ExtraLight,'Martian Mono';font-size:36.31px;font-variation-settings:'wght' 200,'wdth' 100;font-weight:200;fill:#e8e8e8"><tspan x="0" y="0">COMPANY</tspan></text>
        </g>
    </g>
</svg>
